<?xml version="1.0"?>
<svg xmlns="http://www.w3.org/2000/svg" xmlns:xlink="http://www.w3.org/1999/xlink" viewBox="0 0 351.000000 136.000000" width="175.500000mm" height="68.000000mm" version="1.1">
<a xlink:href="xover-0x7fed788f8f70.svg">
<rect x="1.000000" y="1.000000" width="350.000000" height="135.000000" rx="0" ry="0" style="stroke:none;fill:#cccccc;"/>
<rect x="0.000000" y="0.000000" width="350.000000" height="135.000000" rx="0" ry="0" style="stroke:none;fill:#ffffff;"/>
</a>
<text x="10.000000" y="7.000000" font-family="Arial" font-size="7"></text>
<a xlink:href="gain-0x7fed70bed890.svg">
<rect x="112.000000" y="25.000000" width="129.000000" height="24.000000" rx="0" ry="0" style="stroke:none;fill:#cccccc;"/>
<rect x="111.000000" y="24.000000" width="129.000000" height="24.000000" rx="0" ry="0" style="stroke:none;fill:#003366;"/>
</a>
<a xlink:href="gain-0x7fed70bed890.svg">
<text x="175.500000" y="38.000000" font-family="Arial" font-size="7" text-anchor="middle" fill="#FFFFFF">gain(1,(((((3...),1 : +) : /)</text>
</a>
<circle cx="113.000000" cy="26.000000" r="1"/>
<line x1="108.000000" y1="35.000000" x2="111.000000" y2="36.000000"  transform="rotate(0.000000,111.000000,36.000000)" style="stroke: black; stroke-width:0.25;"/>
<line x1="108.000000" y1="37.000000" x2="111.000000" y2="36.000000"  transform="rotate(0.000000,111.000000,36.000000)" style="stroke: black; stroke-width:0.25;"/>
<rect x="67.000000" y="73.000000" width="24.000000" height="24.000000" rx="0" ry="0" style="stroke:none;fill:#cccccc;"/>
<rect x="66.000000" y="72.000000" width="24.000000" height="24.000000" rx="0" ry="0" style="stroke:none;fill:#4B71A1;"/>
<text x="78.000000" y="86.000000" font-family="Arial" font-size="7" text-anchor="middle" fill="#FFFFFF">mem</text>
<circle cx="68.000000" cy="74.000000" r="1"/>
<line x1="63.000000" y1="83.000000" x2="66.000000" y2="84.000000"  transform="rotate(0.000000,66.000000,84.000000)" style="stroke: black; stroke-width:0.25;"/>
<line x1="63.000000" y1="85.000000" x2="66.000000" y2="84.000000"  transform="rotate(0.000000,66.000000,84.000000)" style="stroke: black; stroke-width:0.25;"/>
<a xlink:href="gain-0x7fed70bf5040.svg">
<rect x="141.000000" y="57.000000" width="129.000000" height="24.000000" rx="0" ry="0" style="stroke:none;fill:#cccccc;"/>
<rect x="140.000000" y="56.000000" width="129.000000" height="24.000000" rx="0" ry="0" style="stroke:none;fill:#003366;"/>
</a>
<a xlink:href="gain-0x7fed70bf5040.svg">
<text x="204.500000" y="70.000000" font-family="Arial" font-size="7" text-anchor="middle" fill="#FFFFFF">gain(-2,(((((...),1 : +) : /)</text>
</a>
<circle cx="142.000000" cy="58.000000" r="1"/>
<line x1="137.000000" y1="67.000000" x2="140.000000" y2="68.000000"  transform="rotate(0.000000,140.000000,68.000000)" style="stroke: black; stroke-width:0.25;"/>
<line x1="137.000000" y1="69.000000" x2="140.000000" y2="68.000000"  transform="rotate(0.000000,140.000000,68.000000)" style="stroke: black; stroke-width:0.25;"/>
<rect x="125.000000" y="89.000000" width="24.000000" height="24.000000" rx="0" ry="0" style="stroke:none;fill:#cccccc;"/>
<rect x="124.000000" y="88.000000" width="24.000000" height="24.000000" rx="0" ry="0" style="stroke:none;fill:#4B71A1;"/>
<text x="136.000000" y="102.000000" font-family="Arial" font-size="7" text-anchor="middle" fill="#FFFFFF">mem</text>
<circle cx="126.000000" cy="90.000000" r="1"/>
<line x1="121.000000" y1="99.000000" x2="124.000000" y2="100.000000"  transform="rotate(0.000000,124.000000,100.000000)" style="stroke: black; stroke-width:0.25;"/>
<line x1="121.000000" y1="101.000000" x2="124.000000" y2="100.000000"  transform="rotate(0.000000,124.000000,100.000000)" style="stroke: black; stroke-width:0.25;"/>
<a xlink:href="gain-0x7fed70bed890.svg">
<rect x="157.000000" y="89.000000" width="129.000000" height="24.000000" rx="0" ry="0" style="stroke:none;fill:#cccccc;"/>
<rect x="156.000000" y="88.000000" width="129.000000" height="24.000000" rx="0" ry="0" style="stroke:none;fill:#003366;"/>
</a>
<a xlink:href="gain-0x7fed70bed890.svg">
<text x="220.500000" y="102.000000" font-family="Arial" font-size="7" text-anchor="middle" fill="#FFFFFF">gain(1,(((((3...),1 : +) : /)</text>
</a>
<circle cx="158.000000" cy="90.000000" r="1"/>
<line x1="153.000000" y1="99.000000" x2="156.000000" y2="100.000000"  transform="rotate(0.000000,156.000000,100.000000)" style="stroke: black; stroke-width:0.25;"/>
<line x1="153.000000" y1="101.000000" x2="156.000000" y2="100.000000"  transform="rotate(0.000000,156.000000,100.000000)" style="stroke: black; stroke-width:0.25;"/>
<line x1="15.000000" y1="15.000000" x2="15.000000" y2="121.000000"  style="stroke: black; stroke-linecap:round; stroke-width:0.25; stroke-dasharray:3,3;"/>
<line x1="15.000000" y1="121.000000" x2="336.000000" y2="121.000000"  style="stroke: black; stroke-linecap:round; stroke-width:0.25; stroke-dasharray:3,3;"/>
<line x1="336.000000" y1="121.000000" x2="336.000000" y2="15.000000"  style="stroke: black; stroke-linecap:round; stroke-width:0.25; stroke-dasharray:3,3;"/>
<line x1="15.000000" y1="15.000000" x2="20.000000" y2="15.000000"  style="stroke: black; stroke-linecap:round; stroke-width:0.25; stroke-dasharray:3,3;"/>
<line x1="119.975000" y1="15.000000" x2="336.000000" y2="15.000000"  style="stroke: black; stroke-linecap:round; stroke-width:0.25; stroke-dasharray:3,3;"/>
<text x="20.000000" y="17.000000" font-family="Arial" font-size="7">fir((1,(((((3...,1 : +) : /))</text>
<line x1="338.000000" y1="67.000000" x2="341.000000" y2="68.000000"  transform="rotate(0.000000,341.000000,68.000000)" style="stroke: black; stroke-width:0.25;"/>
<line x1="338.000000" y1="69.000000" x2="341.000000" y2="68.000000"  transform="rotate(0.000000,341.000000,68.000000)" style="stroke: black; stroke-width:0.25;"/>
<line x1="10.000000" y1="68.000000" x2="20.000000" y2="68.000000"  style="stroke:black; stroke-linecap:round; stroke-width:0.25;"/>
<line x1="20.000000" y1="68.000000" x2="24.000000" y2="68.000000"  style="stroke:black; stroke-linecap:round; stroke-width:0.25;"/>
<line x1="24.000000" y1="68.000000" x2="28.000000" y2="68.000000"  style="stroke:black; stroke-linecap:round; stroke-width:0.25;"/>
<line x1="28.000000" y1="68.000000" x2="28.000000" y2="68.000000"  style="stroke:black; stroke-linecap:round; stroke-width:0.25;"/>
<line x1="28.000000" y1="68.000000" x2="32.000000" y2="68.000000"  style="stroke:black; stroke-linecap:round; stroke-width:0.25;"/>
<line x1="32.000000" y1="68.000000" x2="36.000000" y2="68.000000"  style="stroke:black; stroke-linecap:round; stroke-width:0.25;"/>
<line x1="36.000000" y1="68.000000" x2="62.000000" y2="36.000000"  style="stroke:black; stroke-linecap:round; stroke-width:0.25;"/>
<line x1="36.000000" y1="68.000000" x2="62.000000" y2="84.000000"  style="stroke:black; stroke-linecap:round; stroke-width:0.25;"/>
<line x1="62.000000" y1="36.000000" x2="107.000000" y2="36.000000"  style="stroke:black; stroke-linecap:round; stroke-width:0.25;"/>
<line x1="62.000000" y1="84.000000" x2="66.000000" y2="84.000000"  style="stroke:black; stroke-linecap:round; stroke-width:0.25;"/>
<line x1="90.000000" y1="84.000000" x2="94.000000" y2="84.000000"  style="stroke:black; stroke-linecap:round; stroke-width:0.25;"/>
<line x1="94.000000" y1="84.000000" x2="94.000000" y2="84.000000"  style="stroke:black; stroke-linecap:round; stroke-width:0.25;"/>
<line x1="94.000000" y1="84.000000" x2="98.000000" y2="84.000000"  style="stroke:black; stroke-linecap:round; stroke-width:0.25;"/>
<line x1="98.000000" y1="84.000000" x2="102.000000" y2="84.000000"  style="stroke:black; stroke-linecap:round; stroke-width:0.25;"/>
<line x1="102.000000" y1="84.000000" x2="120.000000" y2="68.000000"  style="stroke:black; stroke-linecap:round; stroke-width:0.25;"/>
<line x1="102.000000" y1="84.000000" x2="120.000000" y2="100.000000"  style="stroke:black; stroke-linecap:round; stroke-width:0.25;"/>
<line x1="107.000000" y1="36.000000" x2="111.000000" y2="36.000000"  style="stroke:black; stroke-linecap:round; stroke-width:0.25;"/>
<line x1="120.000000" y1="68.000000" x2="136.000000" y2="68.000000"  style="stroke:black; stroke-linecap:round; stroke-width:0.25;"/>
<line x1="120.000000" y1="100.000000" x2="124.000000" y2="100.000000"  style="stroke:black; stroke-linecap:round; stroke-width:0.25;"/>
<line x1="136.000000" y1="68.000000" x2="140.000000" y2="68.000000"  style="stroke:black; stroke-linecap:round; stroke-width:0.25;"/>
<line x1="148.000000" y1="100.000000" x2="152.000000" y2="100.000000"  style="stroke:black; stroke-linecap:round; stroke-width:0.25;"/>
<line x1="152.000000" y1="100.000000" x2="152.000000" y2="100.000000"  style="stroke:black; stroke-linecap:round; stroke-width:0.25;"/>
<line x1="152.000000" y1="100.000000" x2="156.000000" y2="100.000000"  style="stroke:black; stroke-linecap:round; stroke-width:0.25;"/>
<line x1="240.000000" y1="36.000000" x2="244.000000" y2="36.000000"  style="stroke:black; stroke-linecap:round; stroke-width:0.25;"/>
<line x1="244.000000" y1="36.000000" x2="289.000000" y2="36.000000"  style="stroke:black; stroke-linecap:round; stroke-width:0.25;"/>
<line x1="269.000000" y1="68.000000" x2="273.000000" y2="68.000000"  style="stroke:black; stroke-linecap:round; stroke-width:0.25;"/>
<line x1="273.000000" y1="68.000000" x2="289.000000" y2="68.000000"  style="stroke:black; stroke-linecap:round; stroke-width:0.25;"/>
<line x1="285.000000" y1="100.000000" x2="289.000000" y2="100.000000"  style="stroke:black; stroke-linecap:round; stroke-width:0.25;"/>
<line x1="289.000000" y1="36.000000" x2="315.000000" y2="68.000000"  style="stroke:black; stroke-linecap:round; stroke-width:0.25;"/>
<line x1="289.000000" y1="68.000000" x2="315.000000" y2="68.000000"  style="stroke:black; stroke-linecap:round; stroke-width:0.25;"/>
<line x1="289.000000" y1="100.000000" x2="315.000000" y2="68.000000"  style="stroke:black; stroke-linecap:round; stroke-width:0.25;"/>
<line x1="315.000000" y1="68.000000" x2="319.000000" y2="68.000000"  style="stroke:black; stroke-linecap:round; stroke-width:0.25;"/>
<line x1="319.000000" y1="68.000000" x2="323.000000" y2="68.000000"  style="stroke:black; stroke-linecap:round; stroke-width:0.25;"/>
<line x1="323.000000" y1="68.000000" x2="323.000000" y2="68.000000"  style="stroke:black; stroke-linecap:round; stroke-width:0.25;"/>
<line x1="323.000000" y1="68.000000" x2="327.000000" y2="68.000000"  style="stroke:black; stroke-linecap:round; stroke-width:0.25;"/>
<line x1="327.000000" y1="68.000000" x2="331.000000" y2="68.000000"  style="stroke:black; stroke-linecap:round; stroke-width:0.25;"/>
<line x1="331.000000" y1="68.000000" x2="341.000000" y2="68.000000"  style="stroke:black; stroke-linecap:round; stroke-width:0.25;"/>
</svg>
