<?xml version="1.0"?>
<svg xmlns="http://www.w3.org/2000/svg" xmlns:xlink="http://www.w3.org/1999/xlink" viewBox="0 0 316.000000 248.000000" width="158.000000mm" height="124.000000mm" version="1.1">
<a xlink:href="fir-0x7fed70bc61a0.svg">
<rect x="1.000000" y="1.000000" width="315.000000" height="247.000000" rx="0" ry="0" style="stroke:none;fill:#cccccc;"/>
<rect x="0.000000" y="0.000000" width="315.000000" height="247.000000" rx="0" ry="0" style="stroke:none;fill:#ffffff;"/>
</a>
<text x="10.000000" y="7.000000" font-family="Arial" font-size="7"></text>
<a xlink:href="k2-0x7fed70903c40.svg">
<rect x="71.000000" y="33.000000" width="24.000000" height="24.000000" rx="0" ry="0" style="stroke:none;fill:#cccccc;"/>
<rect x="70.000000" y="32.000000" width="24.000000" height="24.000000" rx="0" ry="0" style="stroke:none;fill:#003366;"/>
</a>
<a xlink:href="k2-0x7fed70903c40.svg">
<text x="82.000000" y="46.000000" font-family="Arial" font-size="7" text-anchor="middle" fill="#FFFFFF">k2</text>
</a>
<circle cx="72.000000" cy="34.000000" r="1"/>
<rect x="51.000000" y="75.000000" width="24.000000" height="24.000000" rx="0" ry="0" style="stroke:none;fill:#cccccc;"/>
<rect x="50.000000" y="74.000000" width="24.000000" height="24.000000" rx="0" ry="0" style="stroke:none;fill:#f44800;"/>
<text x="62.000000" y="88.000000" font-family="Arial" font-size="7" text-anchor="middle" fill="#FFFFFF">2</text>
<circle cx="52.000000" cy="76.000000" r="1"/>
<line x1="41.000000" y1="65.000000" x2="41.000000" y2="107.000000"  style="stroke: black; stroke-linecap:round; stroke-width:0.25; stroke-dasharray:3,3;"/>
<line x1="41.000000" y1="107.000000" x2="83.000000" y2="107.000000"  style="stroke: black; stroke-linecap:round; stroke-width:0.25; stroke-dasharray:3,3;"/>
<line x1="83.000000" y1="107.000000" x2="83.000000" y2="65.000000"  style="stroke: black; stroke-linecap:round; stroke-width:0.25; stroke-dasharray:3,3;"/>
<line x1="41.000000" y1="65.000000" x2="46.000000" y2="65.000000"  style="stroke: black; stroke-linecap:round; stroke-width:0.25; stroke-dasharray:3,3;"/>
<line x1="71.800000" y1="65.000000" x2="83.000000" y2="65.000000"  style="stroke: black; stroke-linecap:round; stroke-width:0.25; stroke-dasharray:3,3;"/>
<text x="46.000000" y="67.000000" font-family="Arial" font-size="7">nbands</text>
<a xlink:href="k-0x7fed709038f0.svg">
<rect x="51.000000" y="117.000000" width="24.000000" height="24.000000" rx="0" ry="0" style="stroke:none;fill:#cccccc;"/>
<rect x="50.000000" y="116.000000" width="24.000000" height="24.000000" rx="0" ry="0" style="stroke:none;fill:#003366;"/>
</a>
<a xlink:href="k-0x7fed709038f0.svg">
<text x="62.000000" y="130.000000" font-family="Arial" font-size="7" text-anchor="middle" fill="#FFFFFF">k</text>
</a>
<circle cx="52.000000" cy="118.000000" r="1"/>
<rect x="101.000000" y="91.000000" width="24.000000" height="24.000000" rx="0" ry="0" style="stroke:none;fill:#cccccc;"/>
<rect x="100.000000" y="90.000000" width="24.000000" height="24.000000" rx="0" ry="0" style="stroke:none;fill:#4B71A1;"/>
<text x="112.000000" y="104.000000" font-family="Arial" font-size="7" text-anchor="middle" fill="#FFFFFF">*</text>
<circle cx="102.000000" cy="92.000000" r="1"/>
<line x1="97.000000" y1="97.000000" x2="100.000000" y2="98.000000"  transform="rotate(0.000000,100.000000,98.000000)" style="stroke: black; stroke-width:0.25;"/>
<line x1="97.000000" y1="99.000000" x2="100.000000" y2="98.000000"  transform="rotate(0.000000,100.000000,98.000000)" style="stroke: black; stroke-width:0.25;"/>
<line x1="97.000000" y1="105.000000" x2="100.000000" y2="106.000000"  transform="rotate(0.000000,100.000000,106.000000)" style="stroke: black; stroke-width:0.25;"/>
<line x1="97.000000" y1="107.000000" x2="100.000000" y2="106.000000"  transform="rotate(0.000000,100.000000,106.000000)" style="stroke: black; stroke-width:0.25;"/>
<rect x="141.000000" y="75.000000" width="24.000000" height="24.000000" rx="0" ry="0" style="stroke:none;fill:#cccccc;"/>
<rect x="140.000000" y="74.000000" width="24.000000" height="24.000000" rx="0" ry="0" style="stroke:none;fill:#4B71A1;"/>
<text x="152.000000" y="88.000000" font-family="Arial" font-size="7" text-anchor="middle" fill="#FFFFFF">-</text>
<circle cx="142.000000" cy="76.000000" r="1"/>
<line x1="137.000000" y1="81.000000" x2="140.000000" y2="82.000000"  transform="rotate(0.000000,140.000000,82.000000)" style="stroke: black; stroke-width:0.25;"/>
<line x1="137.000000" y1="83.000000" x2="140.000000" y2="82.000000"  transform="rotate(0.000000,140.000000,82.000000)" style="stroke: black; stroke-width:0.25;"/>
<line x1="137.000000" y1="89.000000" x2="140.000000" y2="90.000000"  transform="rotate(0.000000,140.000000,90.000000)" style="stroke: black; stroke-width:0.25;"/>
<line x1="137.000000" y1="91.000000" x2="140.000000" y2="90.000000"  transform="rotate(0.000000,140.000000,90.000000)" style="stroke: black; stroke-width:0.25;"/>
<rect x="91.000000" y="159.000000" width="24.000000" height="24.000000" rx="0" ry="0" style="stroke:none;fill:#cccccc;"/>
<rect x="90.000000" y="158.000000" width="24.000000" height="24.000000" rx="0" ry="0" style="stroke:none;fill:#f44800;"/>
<text x="102.000000" y="172.000000" font-family="Arial" font-size="7" text-anchor="middle" fill="#FFFFFF">1</text>
<circle cx="92.000000" cy="160.000000" r="1"/>
<line x1="81.000000" y1="149.000000" x2="81.000000" y2="191.000000"  style="stroke: black; stroke-linecap:round; stroke-width:0.25; stroke-dasharray:3,3;"/>
<line x1="81.000000" y1="191.000000" x2="123.000000" y2="191.000000"  style="stroke: black; stroke-linecap:round; stroke-width:0.25; stroke-dasharray:3,3;"/>
<line x1="123.000000" y1="191.000000" x2="123.000000" y2="149.000000"  style="stroke: black; stroke-linecap:round; stroke-width:0.25; stroke-dasharray:3,3;"/>
<line x1="81.000000" y1="149.000000" x2="86.000000" y2="149.000000"  style="stroke: black; stroke-linecap:round; stroke-width:0.25; stroke-dasharray:3,3;"/>
<line x1="123.000000" y1="149.000000" x2="123.000000" y2="149.000000"  style="stroke: black; stroke-linecap:round; stroke-width:0.25; stroke-dasharray:3,3;"/>
<text x="86.000000" y="151.000000" font-family="Arial" font-size="7">input_full_set</text>
<rect x="181.000000" y="101.000000" width="24.000000" height="24.000000" rx="0" ry="0" style="stroke:none;fill:#cccccc;"/>
<rect x="180.000000" y="100.000000" width="24.000000" height="24.000000" rx="0" ry="0" style="stroke:none;fill:#4B71A1;"/>
<text x="192.000000" y="114.000000" font-family="Arial" font-size="7" text-anchor="middle" fill="#FFFFFF">+</text>
<circle cx="182.000000" cy="102.000000" r="1"/>
<line x1="177.000000" y1="107.000000" x2="180.000000" y2="108.000000"  transform="rotate(0.000000,180.000000,108.000000)" style="stroke: black; stroke-width:0.25;"/>
<line x1="177.000000" y1="109.000000" x2="180.000000" y2="108.000000"  transform="rotate(0.000000,180.000000,108.000000)" style="stroke: black; stroke-width:0.25;"/>
<line x1="177.000000" y1="115.000000" x2="180.000000" y2="116.000000"  transform="rotate(0.000000,180.000000,116.000000)" style="stroke: black; stroke-width:0.25;"/>
<line x1="177.000000" y1="117.000000" x2="180.000000" y2="116.000000"  transform="rotate(0.000000,180.000000,116.000000)" style="stroke: black; stroke-width:0.25;"/>
<a xlink:href="d-0x7fed709052c0.svg">
<rect x="111.000000" y="201.000000" width="24.000000" height="24.000000" rx="0" ry="0" style="stroke:none;fill:#cccccc;"/>
<rect x="110.000000" y="200.000000" width="24.000000" height="24.000000" rx="0" ry="0" style="stroke:none;fill:#003366;"/>
</a>
<a xlink:href="d-0x7fed709052c0.svg">
<text x="122.000000" y="214.000000" font-family="Arial" font-size="7" text-anchor="middle" fill="#FFFFFF">d</text>
</a>
<circle cx="112.000000" cy="202.000000" r="1"/>
<rect x="221.000000" y="117.000000" width="24.000000" height="24.000000" rx="0" ry="0" style="stroke:none;fill:#cccccc;"/>
<rect x="220.000000" y="116.000000" width="24.000000" height="24.000000" rx="0" ry="0" style="stroke:none;fill:#4B71A1;"/>
<text x="232.000000" y="130.000000" font-family="Arial" font-size="7" text-anchor="middle" fill="#FFFFFF">/</text>
<circle cx="222.000000" cy="118.000000" r="1"/>
<line x1="217.000000" y1="123.000000" x2="220.000000" y2="124.000000"  transform="rotate(0.000000,220.000000,124.000000)" style="stroke: black; stroke-width:0.25;"/>
<line x1="217.000000" y1="125.000000" x2="220.000000" y2="124.000000"  transform="rotate(0.000000,220.000000,124.000000)" style="stroke: black; stroke-width:0.25;"/>
<line x1="217.000000" y1="131.000000" x2="220.000000" y2="132.000000"  transform="rotate(0.000000,220.000000,132.000000)" style="stroke: black; stroke-width:0.25;"/>
<line x1="217.000000" y1="133.000000" x2="220.000000" y2="132.000000"  transform="rotate(0.000000,220.000000,132.000000)" style="stroke: black; stroke-width:0.25;"/>
<rect x="261.000000" y="113.000000" width="24.000000" height="24.000000" rx="0" ry="0" style="stroke:none;fill:#cccccc;"/>
<rect x="260.000000" y="112.000000" width="24.000000" height="24.000000" rx="0" ry="0" style="stroke:none;fill:#4B71A1;"/>
<text x="272.000000" y="126.000000" font-family="Arial" font-size="7" text-anchor="middle" fill="#FFFFFF">*</text>
<circle cx="262.000000" cy="114.000000" r="1"/>
<line x1="257.000000" y1="119.000000" x2="260.000000" y2="120.000000"  transform="rotate(0.000000,260.000000,120.000000)" style="stroke: black; stroke-width:0.25;"/>
<line x1="257.000000" y1="121.000000" x2="260.000000" y2="120.000000"  transform="rotate(0.000000,260.000000,120.000000)" style="stroke: black; stroke-width:0.25;"/>
<line x1="257.000000" y1="127.000000" x2="260.000000" y2="128.000000"  transform="rotate(0.000000,260.000000,128.000000)" style="stroke: black; stroke-width:0.25;"/>
<line x1="257.000000" y1="129.000000" x2="260.000000" y2="128.000000"  transform="rotate(0.000000,260.000000,128.000000)" style="stroke: black; stroke-width:0.25;"/>
<line x1="15.000000" y1="15.000000" x2="15.000000" y2="233.000000"  style="stroke: black; stroke-linecap:round; stroke-width:0.25; stroke-dasharray:3,3;"/>
<line x1="15.000000" y1="233.000000" x2="301.000000" y2="233.000000"  style="stroke: black; stroke-linecap:round; stroke-width:0.25; stroke-dasharray:3,3;"/>
<line x1="301.000000" y1="233.000000" x2="301.000000" y2="15.000000"  style="stroke: black; stroke-linecap:round; stroke-width:0.25; stroke-dasharray:3,3;"/>
<line x1="15.000000" y1="15.000000" x2="20.000000" y2="15.000000"  style="stroke: black; stroke-linecap:round; stroke-width:0.25; stroke-dasharray:3,3;"/>
<line x1="119.975000" y1="15.000000" x2="301.000000" y2="15.000000"  style="stroke: black; stroke-linecap:round; stroke-width:0.25; stroke-dasharray:3,3;"/>
<text x="20.000000" y="17.000000" font-family="Arial" font-size="7">gain((((((3.1...),1 : +) : /)</text>
<line x1="303.000000" y1="123.000000" x2="306.000000" y2="124.000000"  transform="rotate(0.000000,306.000000,124.000000)" style="stroke: black; stroke-width:0.25;"/>
<line x1="303.000000" y1="125.000000" x2="306.000000" y2="124.000000"  transform="rotate(0.000000,306.000000,124.000000)" style="stroke: black; stroke-width:0.25;"/>
<line x1="10.000000" y1="124.000000" x2="20.000000" y2="124.000000"  style="stroke:black; stroke-linecap:round; stroke-width:0.25;"/>
<line x1="20.000000" y1="124.000000" x2="24.000000" y2="124.000000"  style="stroke:black; stroke-linecap:round; stroke-width:0.25;"/>
<line x1="24.000000" y1="124.000000" x2="28.000000" y2="124.000000"  style="stroke:black; stroke-linecap:round; stroke-width:0.25;"/>
<line x1="28.000000" y1="24.000000" x2="36.000000" y2="24.000000"  style="stroke:black; stroke-linecap:round; stroke-width:0.25;"/>
<line x1="28.000000" y1="124.000000" x2="28.000000" y2="24.000000"  style="stroke:black; stroke-linecap:round; stroke-width:0.25;"/>
<line x1="28.000000" y1="124.000000" x2="28.000000" y2="124.000000"  style="stroke:black; stroke-linecap:round; stroke-width:0.25;"/>
<line x1="36.000000" y1="24.000000" x2="142.000000" y2="24.000000"  style="stroke:black; stroke-linecap:round; stroke-width:0.25;"/>
<line x1="74.000000" y1="86.000000" x2="78.000000" y2="86.000000"  style="stroke:black; stroke-linecap:round; stroke-width:0.25;"/>
<line x1="74.000000" y1="128.000000" x2="78.000000" y2="128.000000"  style="stroke:black; stroke-linecap:round; stroke-width:0.25;"/>
<line x1="78.000000" y1="86.000000" x2="88.000000" y2="86.000000"  style="stroke:black; stroke-linecap:round; stroke-width:0.25;"/>
<line x1="78.000000" y1="128.000000" x2="88.000000" y2="128.000000"  style="stroke:black; stroke-linecap:round; stroke-width:0.25;"/>
<line x1="88.000000" y1="86.000000" x2="96.000000" y2="86.000000"  style="stroke:black; stroke-linecap:round; stroke-width:0.25;"/>
<line x1="88.000000" y1="106.000000" x2="96.000000" y2="106.000000"  style="stroke:black; stroke-linecap:round; stroke-width:0.25;"/>
<line x1="88.000000" y1="128.000000" x2="88.000000" y2="106.000000"  style="stroke:black; stroke-linecap:round; stroke-width:0.25;"/>
<line x1="88.000000" y1="128.000000" x2="88.000000" y2="128.000000"  style="stroke:black; stroke-linecap:round; stroke-width:0.25;"/>
<line x1="94.000000" y1="44.000000" x2="98.000000" y2="44.000000"  style="stroke:black; stroke-linecap:round; stroke-width:0.25;"/>
<line x1="96.000000" y1="86.000000" x2="96.000000" y2="98.000000"  style="stroke:black; stroke-linecap:round; stroke-width:0.25;"/>
<line x1="96.000000" y1="98.000000" x2="96.000000" y2="98.000000"  style="stroke:black; stroke-linecap:round; stroke-width:0.25;"/>
<line x1="96.000000" y1="98.000000" x2="100.000000" y2="98.000000"  style="stroke:black; stroke-linecap:round; stroke-width:0.25;"/>
<line x1="96.000000" y1="106.000000" x2="100.000000" y2="106.000000"  style="stroke:black; stroke-linecap:round; stroke-width:0.25;"/>
<line x1="98.000000" y1="44.000000" x2="128.000000" y2="44.000000"  style="stroke:black; stroke-linecap:round; stroke-width:0.25;"/>
<line x1="114.000000" y1="170.000000" x2="118.000000" y2="170.000000"  style="stroke:black; stroke-linecap:round; stroke-width:0.25;"/>
<line x1="118.000000" y1="170.000000" x2="128.000000" y2="170.000000"  style="stroke:black; stroke-linecap:round; stroke-width:0.25;"/>
<line x1="124.000000" y1="102.000000" x2="128.000000" y2="102.000000"  style="stroke:black; stroke-linecap:round; stroke-width:0.25;"/>
<line x1="128.000000" y1="44.000000" x2="136.000000" y2="44.000000"  style="stroke:black; stroke-linecap:round; stroke-width:0.25;"/>
<line x1="128.000000" y1="90.000000" x2="136.000000" y2="90.000000"  style="stroke:black; stroke-linecap:round; stroke-width:0.25;"/>
<line x1="128.000000" y1="102.000000" x2="128.000000" y2="90.000000"  style="stroke:black; stroke-linecap:round; stroke-width:0.25;"/>
<line x1="128.000000" y1="102.000000" x2="128.000000" y2="102.000000"  style="stroke:black; stroke-linecap:round; stroke-width:0.25;"/>
<line x1="128.000000" y1="170.000000" x2="168.000000" y2="170.000000"  style="stroke:black; stroke-linecap:round; stroke-width:0.25;"/>
<line x1="134.000000" y1="212.000000" x2="138.000000" y2="212.000000"  style="stroke:black; stroke-linecap:round; stroke-width:0.25;"/>
<line x1="136.000000" y1="44.000000" x2="136.000000" y2="82.000000"  style="stroke:black; stroke-linecap:round; stroke-width:0.25;"/>
<line x1="136.000000" y1="82.000000" x2="136.000000" y2="82.000000"  style="stroke:black; stroke-linecap:round; stroke-width:0.25;"/>
<line x1="136.000000" y1="82.000000" x2="140.000000" y2="82.000000"  style="stroke:black; stroke-linecap:round; stroke-width:0.25;"/>
<line x1="136.000000" y1="90.000000" x2="140.000000" y2="90.000000"  style="stroke:black; stroke-linecap:round; stroke-width:0.25;"/>
<line x1="138.000000" y1="212.000000" x2="208.000000" y2="212.000000"  style="stroke:black; stroke-linecap:round; stroke-width:0.25;"/>
<line x1="142.000000" y1="24.000000" x2="248.000000" y2="24.000000"  style="stroke:black; stroke-linecap:round; stroke-width:0.25;"/>
<line x1="164.000000" y1="86.000000" x2="168.000000" y2="86.000000"  style="stroke:black; stroke-linecap:round; stroke-width:0.25;"/>
<line x1="168.000000" y1="86.000000" x2="176.000000" y2="86.000000"  style="stroke:black; stroke-linecap:round; stroke-width:0.25;"/>
<line x1="168.000000" y1="116.000000" x2="176.000000" y2="116.000000"  style="stroke:black; stroke-linecap:round; stroke-width:0.25;"/>
<line x1="168.000000" y1="170.000000" x2="168.000000" y2="116.000000"  style="stroke:black; stroke-linecap:round; stroke-width:0.25;"/>
<line x1="168.000000" y1="170.000000" x2="168.000000" y2="170.000000"  style="stroke:black; stroke-linecap:round; stroke-width:0.25;"/>
<line x1="176.000000" y1="86.000000" x2="176.000000" y2="108.000000"  style="stroke:black; stroke-linecap:round; stroke-width:0.25;"/>
<line x1="176.000000" y1="108.000000" x2="176.000000" y2="108.000000"  style="stroke:black; stroke-linecap:round; stroke-width:0.25;"/>
<line x1="176.000000" y1="108.000000" x2="180.000000" y2="108.000000"  style="stroke:black; stroke-linecap:round; stroke-width:0.25;"/>
<line x1="176.000000" y1="116.000000" x2="180.000000" y2="116.000000"  style="stroke:black; stroke-linecap:round; stroke-width:0.25;"/>
<line x1="204.000000" y1="112.000000" x2="208.000000" y2="112.000000"  style="stroke:black; stroke-linecap:round; stroke-width:0.25;"/>
<line x1="208.000000" y1="112.000000" x2="216.000000" y2="112.000000"  style="stroke:black; stroke-linecap:round; stroke-width:0.25;"/>
<line x1="208.000000" y1="132.000000" x2="216.000000" y2="132.000000"  style="stroke:black; stroke-linecap:round; stroke-width:0.25;"/>
<line x1="208.000000" y1="212.000000" x2="208.000000" y2="132.000000"  style="stroke:black; stroke-linecap:round; stroke-width:0.25;"/>
<line x1="208.000000" y1="212.000000" x2="208.000000" y2="212.000000"  style="stroke:black; stroke-linecap:round; stroke-width:0.25;"/>
<line x1="216.000000" y1="112.000000" x2="216.000000" y2="124.000000"  style="stroke:black; stroke-linecap:round; stroke-width:0.25;"/>
<line x1="216.000000" y1="124.000000" x2="216.000000" y2="124.000000"  style="stroke:black; stroke-linecap:round; stroke-width:0.25;"/>
<line x1="216.000000" y1="124.000000" x2="220.000000" y2="124.000000"  style="stroke:black; stroke-linecap:round; stroke-width:0.25;"/>
<line x1="216.000000" y1="132.000000" x2="220.000000" y2="132.000000"  style="stroke:black; stroke-linecap:round; stroke-width:0.25;"/>
<line x1="244.000000" y1="128.000000" x2="248.000000" y2="128.000000"  style="stroke:black; stroke-linecap:round; stroke-width:0.25;"/>
<line x1="248.000000" y1="24.000000" x2="256.000000" y2="24.000000"  style="stroke:black; stroke-linecap:round; stroke-width:0.25;"/>
<line x1="248.000000" y1="128.000000" x2="256.000000" y2="128.000000"  style="stroke:black; stroke-linecap:round; stroke-width:0.25;"/>
<line x1="256.000000" y1="24.000000" x2="256.000000" y2="120.000000"  style="stroke:black; stroke-linecap:round; stroke-width:0.25;"/>
<line x1="256.000000" y1="120.000000" x2="256.000000" y2="120.000000"  style="stroke:black; stroke-linecap:round; stroke-width:0.25;"/>
<line x1="256.000000" y1="120.000000" x2="260.000000" y2="120.000000"  style="stroke:black; stroke-linecap:round; stroke-width:0.25;"/>
<line x1="256.000000" y1="128.000000" x2="260.000000" y2="128.000000"  style="stroke:black; stroke-linecap:round; stroke-width:0.25;"/>
<line x1="284.000000" y1="124.000000" x2="288.000000" y2="124.000000"  style="stroke:black; stroke-linecap:round; stroke-width:0.25;"/>
<line x1="288.000000" y1="124.000000" x2="288.000000" y2="124.000000"  style="stroke:black; stroke-linecap:round; stroke-width:0.25;"/>
<line x1="288.000000" y1="124.000000" x2="292.000000" y2="124.000000"  style="stroke:black; stroke-linecap:round; stroke-width:0.25;"/>
<line x1="292.000000" y1="124.000000" x2="296.000000" y2="124.000000"  style="stroke:black; stroke-linecap:round; stroke-width:0.25;"/>
<line x1="296.000000" y1="124.000000" x2="306.000000" y2="124.000000"  style="stroke:black; stroke-linecap:round; stroke-width:0.25;"/>
</svg>
