<?xml version="1.0"?>
<svg xmlns="http://www.w3.org/2000/svg" xmlns:xlink="http://www.w3.org/1999/xlink" viewBox="0 0 253.400000 156.000000" width="126.700000mm" height="78.000000mm" version="1.1">
<a xlink:href="d-0x7fed709052c0.svg">
<rect x="1.000000" y="1.000000" width="252.400000" height="155.000000" rx="0" ry="0" style="stroke:none;fill:#cccccc;"/>
<rect x="0.000000" y="0.000000" width="252.400000" height="155.000000" rx="0" ry="0" style="stroke:none;fill:#ffffff;"/>
</a>
<text x="10.000000" y="7.000000" font-family="Arial" font-size="7"></text>
<rect x="48.350000" y="35.000000" width="38.700000" height="24.000000" rx="0" ry="0" style="stroke:none;fill:#cccccc;"/>
<rect x="47.350000" y="34.000000" width="38.700000" height="24.000000" rx="0" ry="0" style="stroke:none;fill:#f44800;"/>
<text x="66.700000" y="48.000000" font-family="Arial" font-size="7" text-anchor="middle" fill="#FFFFFF">3.14159</text>
<circle cx="49.350000" cy="36.000000" r="1"/>
<line x1="38.350000" y1="25.000000" x2="38.350000" y2="67.000000"  style="stroke: black; stroke-linecap:round; stroke-width:0.25; stroke-dasharray:3,3;"/>
<line x1="38.350000" y1="67.000000" x2="95.050000" y2="67.000000"  style="stroke: black; stroke-linecap:round; stroke-width:0.25; stroke-dasharray:3,3;"/>
<line x1="95.050000" y1="67.000000" x2="95.050000" y2="25.000000"  style="stroke: black; stroke-linecap:round; stroke-width:0.25; stroke-dasharray:3,3;"/>
<line x1="38.350000" y1="25.000000" x2="43.350000" y2="25.000000"  style="stroke: black; stroke-linecap:round; stroke-width:0.25; stroke-dasharray:3,3;"/>
<line x1="56.250000" y1="25.000000" x2="95.050000" y2="25.000000"  style="stroke: black; stroke-linecap:round; stroke-width:0.25; stroke-dasharray:3,3;"/>
<text x="43.350000" y="27.000000" font-family="Arial" font-size="7">PI</text>
<a xlink:href="xover-0x7fed6e552030.svg">
<rect x="25.000000" y="77.000000" width="51.600000" height="24.000000" rx="0" ry="0" style="stroke:none;fill:#cccccc;"/>
<rect x="24.000000" y="76.000000" width="51.600000" height="24.000000" rx="0" ry="0" style="stroke:none;fill:#003366;"/>
</a>
<a xlink:href="xover-0x7fed6e552030.svg">
<text x="49.800000" y="90.000000" font-family="Arial" font-size="7" text-anchor="middle" fill="#FFFFFF">xover_freq</text>
</a>
<circle cx="26.000000" cy="78.000000" r="1"/>
<rect x="84.600000" y="77.000000" width="25.800000" height="24.000000" rx="0" ry="0" style="stroke:none;fill:#cccccc;"/>
<rect x="83.600000" y="76.000000" width="25.800000" height="24.000000" rx="0" ry="0" style="stroke:none;fill:#4B71A1;"/>
<text x="96.500000" y="90.000000" font-family="Arial" font-size="7" text-anchor="middle" fill="#FFFFFF">float</text>
<circle cx="85.600000" cy="78.000000" r="1"/>
<line x1="80.600000" y1="87.000000" x2="83.600000" y2="88.000000"  transform="rotate(0.000000,83.600000,88.000000)" style="stroke: black; stroke-width:0.25;"/>
<line x1="80.600000" y1="89.000000" x2="83.600000" y2="88.000000"  transform="rotate(0.000000,83.600000,88.000000)" style="stroke: black; stroke-width:0.25;"/>
<rect x="126.400000" y="51.000000" width="24.000000" height="24.000000" rx="0" ry="0" style="stroke:none;fill:#cccccc;"/>
<rect x="125.400000" y="50.000000" width="24.000000" height="24.000000" rx="0" ry="0" style="stroke:none;fill:#4B71A1;"/>
<text x="137.400000" y="64.000000" font-family="Arial" font-size="7" text-anchor="middle" fill="#FFFFFF">*</text>
<circle cx="127.400000" cy="52.000000" r="1"/>
<line x1="122.400000" y1="57.000000" x2="125.400000" y2="58.000000"  transform="rotate(0.000000,125.400000,58.000000)" style="stroke: black; stroke-width:0.25;"/>
<line x1="122.400000" y1="59.000000" x2="125.400000" y2="58.000000"  transform="rotate(0.000000,125.400000,58.000000)" style="stroke: black; stroke-width:0.25;"/>
<line x1="122.400000" y1="65.000000" x2="125.400000" y2="66.000000"  transform="rotate(0.000000,125.400000,66.000000)" style="stroke: black; stroke-width:0.25;"/>
<line x1="122.400000" y1="67.000000" x2="125.400000" y2="66.000000"  transform="rotate(0.000000,125.400000,66.000000)" style="stroke: black; stroke-width:0.25;"/>
<a xlink:href="SR-0x7fed70903010.svg">
<rect x="75.700000" y="109.000000" width="24.000000" height="24.000000" rx="0" ry="0" style="stroke:none;fill:#cccccc;"/>
<rect x="74.700000" y="108.000000" width="24.000000" height="24.000000" rx="0" ry="0" style="stroke:none;fill:#003366;"/>
</a>
<a xlink:href="SR-0x7fed70903010.svg">
<text x="86.700000" y="122.000000" font-family="Arial" font-size="7" text-anchor="middle" fill="#FFFFFF">SR</text>
</a>
<circle cx="76.700000" cy="110.000000" r="1"/>
<rect x="166.400000" y="67.000000" width="24.000000" height="24.000000" rx="0" ry="0" style="stroke:none;fill:#cccccc;"/>
<rect x="165.400000" y="66.000000" width="24.000000" height="24.000000" rx="0" ry="0" style="stroke:none;fill:#4B71A1;"/>
<text x="177.400000" y="80.000000" font-family="Arial" font-size="7" text-anchor="middle" fill="#FFFFFF">/</text>
<circle cx="167.400000" cy="68.000000" r="1"/>
<line x1="162.400000" y1="73.000000" x2="165.400000" y2="74.000000"  transform="rotate(0.000000,165.400000,74.000000)" style="stroke: black; stroke-width:0.25;"/>
<line x1="162.400000" y1="75.000000" x2="165.400000" y2="74.000000"  transform="rotate(0.000000,165.400000,74.000000)" style="stroke: black; stroke-width:0.25;"/>
<line x1="162.400000" y1="81.000000" x2="165.400000" y2="82.000000"  transform="rotate(0.000000,165.400000,82.000000)" style="stroke: black; stroke-width:0.25;"/>
<line x1="162.400000" y1="83.000000" x2="165.400000" y2="82.000000"  transform="rotate(0.000000,165.400000,82.000000)" style="stroke: black; stroke-width:0.25;"/>
<rect x="198.400000" y="67.000000" width="24.000000" height="24.000000" rx="0" ry="0" style="stroke:none;fill:#cccccc;"/>
<rect x="197.400000" y="66.000000" width="24.000000" height="24.000000" rx="0" ry="0" style="stroke:none;fill:#4B71A1;"/>
<text x="209.400000" y="80.000000" font-family="Arial" font-size="7" text-anchor="middle" fill="#FFFFFF">tan</text>
<circle cx="199.400000" cy="68.000000" r="1"/>
<line x1="194.400000" y1="77.000000" x2="197.400000" y2="78.000000"  transform="rotate(0.000000,197.400000,78.000000)" style="stroke: black; stroke-width:0.25;"/>
<line x1="194.400000" y1="79.000000" x2="197.400000" y2="78.000000"  transform="rotate(0.000000,197.400000,78.000000)" style="stroke: black; stroke-width:0.25;"/>
<line x1="15.000000" y1="15.000000" x2="15.000000" y2="141.000000"  style="stroke: black; stroke-linecap:round; stroke-width:0.25; stroke-dasharray:3,3;"/>
<line x1="15.000000" y1="141.000000" x2="238.400000" y2="141.000000"  style="stroke: black; stroke-linecap:round; stroke-width:0.25; stroke-dasharray:3,3;"/>
<line x1="238.400000" y1="141.000000" x2="238.400000" y2="15.000000"  style="stroke: black; stroke-linecap:round; stroke-width:0.25; stroke-dasharray:3,3;"/>
<line x1="15.000000" y1="15.000000" x2="20.000000" y2="15.000000"  style="stroke: black; stroke-linecap:round; stroke-width:0.25; stroke-dasharray:3,3;"/>
<line x1="29.675000" y1="15.000000" x2="238.400000" y2="15.000000"  style="stroke: black; stroke-linecap:round; stroke-width:0.25; stroke-dasharray:3,3;"/>
<text x="20.000000" y="17.000000" font-family="Arial" font-size="7">k</text>
<line x1="240.400000" y1="77.000000" x2="243.400000" y2="78.000000"  transform="rotate(0.000000,243.400000,78.000000)" style="stroke: black; stroke-width:0.25;"/>
<line x1="240.400000" y1="79.000000" x2="243.400000" y2="78.000000"  transform="rotate(0.000000,243.400000,78.000000)" style="stroke: black; stroke-width:0.25;"/>
<line x1="75.600000" y1="88.000000" x2="79.600000" y2="88.000000"  style="stroke:black; stroke-linecap:round; stroke-width:0.25;"/>
<line x1="79.600000" y1="88.000000" x2="79.600000" y2="88.000000"  style="stroke:black; stroke-linecap:round; stroke-width:0.25;"/>
<line x1="79.600000" y1="88.000000" x2="83.600000" y2="88.000000"  style="stroke:black; stroke-linecap:round; stroke-width:0.25;"/>
<line x1="86.050000" y1="46.000000" x2="90.050000" y2="46.000000"  style="stroke:black; stroke-linecap:round; stroke-width:0.25;"/>
<line x1="90.050000" y1="46.000000" x2="100.050000" y2="46.000000"  style="stroke:black; stroke-linecap:round; stroke-width:0.25;"/>
<line x1="98.700000" y1="120.000000" x2="102.700000" y2="120.000000"  style="stroke:black; stroke-linecap:round; stroke-width:0.25;"/>
<line x1="100.050000" y1="46.000000" x2="113.400000" y2="46.000000"  style="stroke:black; stroke-linecap:round; stroke-width:0.25;"/>
<line x1="102.700000" y1="120.000000" x2="153.400000" y2="120.000000"  style="stroke:black; stroke-linecap:round; stroke-width:0.25;"/>
<line x1="109.400000" y1="88.000000" x2="113.400000" y2="88.000000"  style="stroke:black; stroke-linecap:round; stroke-width:0.25;"/>
<line x1="113.400000" y1="66.000000" x2="121.400000" y2="66.000000"  style="stroke:black; stroke-linecap:round; stroke-width:0.25;"/>
<line x1="113.400000" y1="88.000000" x2="113.400000" y2="66.000000"  style="stroke:black; stroke-linecap:round; stroke-width:0.25;"/>
<line x1="113.400000" y1="88.000000" x2="113.400000" y2="88.000000"  style="stroke:black; stroke-linecap:round; stroke-width:0.25;"/>
<line x1="113.400000" y1="46.000000" x2="121.400000" y2="46.000000"  style="stroke:black; stroke-linecap:round; stroke-width:0.25;"/>
<line x1="121.400000" y1="58.000000" x2="125.400000" y2="58.000000"  style="stroke:black; stroke-linecap:round; stroke-width:0.25;"/>
<line x1="121.400000" y1="66.000000" x2="125.400000" y2="66.000000"  style="stroke:black; stroke-linecap:round; stroke-width:0.25;"/>
<line x1="121.400000" y1="46.000000" x2="121.400000" y2="58.000000"  style="stroke:black; stroke-linecap:round; stroke-width:0.25;"/>
<line x1="121.400000" y1="58.000000" x2="121.400000" y2="58.000000"  style="stroke:black; stroke-linecap:round; stroke-width:0.25;"/>
<line x1="149.400000" y1="62.000000" x2="153.400000" y2="62.000000"  style="stroke:black; stroke-linecap:round; stroke-width:0.25;"/>
<line x1="153.400000" y1="62.000000" x2="161.400000" y2="62.000000"  style="stroke:black; stroke-linecap:round; stroke-width:0.25;"/>
<line x1="153.400000" y1="82.000000" x2="161.400000" y2="82.000000"  style="stroke:black; stroke-linecap:round; stroke-width:0.25;"/>
<line x1="153.400000" y1="120.000000" x2="153.400000" y2="82.000000"  style="stroke:black; stroke-linecap:round; stroke-width:0.25;"/>
<line x1="153.400000" y1="120.000000" x2="153.400000" y2="120.000000"  style="stroke:black; stroke-linecap:round; stroke-width:0.25;"/>
<line x1="161.400000" y1="62.000000" x2="161.400000" y2="74.000000"  style="stroke:black; stroke-linecap:round; stroke-width:0.25;"/>
<line x1="161.400000" y1="74.000000" x2="161.400000" y2="74.000000"  style="stroke:black; stroke-linecap:round; stroke-width:0.25;"/>
<line x1="161.400000" y1="74.000000" x2="165.400000" y2="74.000000"  style="stroke:black; stroke-linecap:round; stroke-width:0.25;"/>
<line x1="161.400000" y1="82.000000" x2="165.400000" y2="82.000000"  style="stroke:black; stroke-linecap:round; stroke-width:0.25;"/>
<line x1="189.400000" y1="78.000000" x2="193.400000" y2="78.000000"  style="stroke:black; stroke-linecap:round; stroke-width:0.25;"/>
<line x1="193.400000" y1="78.000000" x2="193.400000" y2="78.000000"  style="stroke:black; stroke-linecap:round; stroke-width:0.25;"/>
<line x1="193.400000" y1="78.000000" x2="197.400000" y2="78.000000"  style="stroke:black; stroke-linecap:round; stroke-width:0.25;"/>
<line x1="221.400000" y1="78.000000" x2="225.400000" y2="78.000000"  style="stroke:black; stroke-linecap:round; stroke-width:0.25;"/>
<line x1="225.400000" y1="78.000000" x2="225.400000" y2="78.000000"  style="stroke:black; stroke-linecap:round; stroke-width:0.25;"/>
<line x1="225.400000" y1="78.000000" x2="229.400000" y2="78.000000"  style="stroke:black; stroke-linecap:round; stroke-width:0.25;"/>
<line x1="229.400000" y1="78.000000" x2="233.400000" y2="78.000000"  style="stroke:black; stroke-linecap:round; stroke-width:0.25;"/>
<line x1="233.400000" y1="78.000000" x2="243.400000" y2="78.000000"  style="stroke:black; stroke-linecap:round; stroke-width:0.25;"/>
</svg>
