<?xml version="1.0"?>
<svg xmlns="http://www.w3.org/2000/svg" xmlns:xlink="http://www.w3.org/1999/xlink" viewBox="0 0 394.500000 72.000000" width="197.250000mm" height="36.000000mm" version="1.1">
<a xlink:href="gain-0x7fed78f9ff20.svg">
<rect x="1.000000" y="1.000000" width="393.500000" height="71.000000" rx="0" ry="0" style="stroke:none;fill:#cccccc;"/>
<rect x="0.000000" y="0.000000" width="393.500000" height="71.000000" rx="0" ry="0" style="stroke:none;fill:#ffffff;"/>
</a>
<text x="10.000000" y="7.000000" font-family="Arial" font-size="7"></text>
<rect x="25.000000" y="25.000000" width="245.100000" height="24.000000" rx="0" ry="0" style="stroke:none;fill:#cccccc;"/>
<rect x="24.000000" y="24.000000" width="245.100000" height="24.000000" rx="0" ry="0" style="stroke:none;fill:#477881;"/>
<text x="146.550000" y="38.000000" font-family="Arial" font-size="7" text-anchor="middle" fill="#FFFFFF">hslider(lf/hf, 0.0f, -3.0f, 3.0f, 0.10000000000000001f)</text>
<circle cx="26.000000" cy="26.000000" r="1"/>
<a xlink:href="db2linear-0x7fed70d10f20.svg">
<rect x="278.100000" y="25.000000" width="38.700000" height="24.000000" rx="0" ry="0" style="stroke:none;fill:#cccccc;"/>
<rect x="277.100000" y="24.000000" width="38.700000" height="24.000000" rx="0" ry="0" style="stroke:none;fill:#003366;"/>
</a>
<a xlink:href="db2linear-0x7fed70d10f20.svg">
<text x="296.450000" y="38.000000" font-family="Arial" font-size="7" text-anchor="middle" fill="#FFFFFF">db2linear</text>
</a>
<circle cx="279.100000" cy="26.000000" r="1"/>
<line x1="274.100000" y1="35.000000" x2="277.100000" y2="36.000000"  transform="rotate(0.000000,277.100000,36.000000)" style="stroke: black; stroke-width:0.25;"/>
<line x1="274.100000" y1="37.000000" x2="277.100000" y2="36.000000"  transform="rotate(0.000000,277.100000,36.000000)" style="stroke: black; stroke-width:0.25;"/>
<a xlink:href="dezipper-0x7fed6e65a070.svg">
<rect x="324.800000" y="25.000000" width="38.700000" height="24.000000" rx="0" ry="0" style="stroke:none;fill:#cccccc;"/>
<rect x="323.800000" y="24.000000" width="38.700000" height="24.000000" rx="0" ry="0" style="stroke:none;fill:#003366;"/>
</a>
<a xlink:href="dezipper-0x7fed6e65a070.svg">
<text x="343.150000" y="38.000000" font-family="Arial" font-size="7" text-anchor="middle" fill="#FFFFFF">dezipper</text>
</a>
<circle cx="325.800000" cy="26.000000" r="1"/>
<line x1="320.800000" y1="35.000000" x2="323.800000" y2="36.000000"  transform="rotate(0.000000,323.800000,36.000000)" style="stroke: black; stroke-width:0.25;"/>
<line x1="320.800000" y1="37.000000" x2="323.800000" y2="36.000000"  transform="rotate(0.000000,323.800000,36.000000)" style="stroke: black; stroke-width:0.25;"/>
<line x1="15.000000" y1="15.000000" x2="15.000000" y2="57.000000"  style="stroke: black; stroke-linecap:round; stroke-width:0.25; stroke-dasharray:3,3;"/>
<line x1="15.000000" y1="57.000000" x2="379.500000" y2="57.000000"  style="stroke: black; stroke-linecap:round; stroke-width:0.25; stroke-dasharray:3,3;"/>
<line x1="379.500000" y1="57.000000" x2="379.500000" y2="15.000000"  style="stroke: black; stroke-linecap:round; stroke-width:0.25; stroke-dasharray:3,3;"/>
<line x1="15.000000" y1="15.000000" x2="20.000000" y2="15.000000"  style="stroke: black; stroke-linecap:round; stroke-width:0.25; stroke-dasharray:3,3;"/>
<line x1="58.700000" y1="15.000000" x2="379.500000" y2="15.000000"  style="stroke: black; stroke-linecap:round; stroke-width:0.25; stroke-dasharray:3,3;"/>
<text x="20.000000" y="17.000000" font-family="Arial" font-size="7">lfhf_ratio</text>
<line x1="381.500000" y1="35.000000" x2="384.500000" y2="36.000000"  transform="rotate(0.000000,384.500000,36.000000)" style="stroke: black; stroke-width:0.25;"/>
<line x1="381.500000" y1="37.000000" x2="384.500000" y2="36.000000"  transform="rotate(0.000000,384.500000,36.000000)" style="stroke: black; stroke-width:0.25;"/>
<line x1="269.100000" y1="36.000000" x2="273.100000" y2="36.000000"  style="stroke:black; stroke-linecap:round; stroke-width:0.25;"/>
<line x1="273.100000" y1="36.000000" x2="273.100000" y2="36.000000"  style="stroke:black; stroke-linecap:round; stroke-width:0.25;"/>
<line x1="273.100000" y1="36.000000" x2="277.100000" y2="36.000000"  style="stroke:black; stroke-linecap:round; stroke-width:0.25;"/>
<line x1="315.800000" y1="36.000000" x2="319.800000" y2="36.000000"  style="stroke:black; stroke-linecap:round; stroke-width:0.25;"/>
<line x1="319.800000" y1="36.000000" x2="319.800000" y2="36.000000"  style="stroke:black; stroke-linecap:round; stroke-width:0.25;"/>
<line x1="319.800000" y1="36.000000" x2="323.800000" y2="36.000000"  style="stroke:black; stroke-linecap:round; stroke-width:0.25;"/>
<line x1="362.500000" y1="36.000000" x2="366.500000" y2="36.000000"  style="stroke:black; stroke-linecap:round; stroke-width:0.25;"/>
<line x1="366.500000" y1="36.000000" x2="366.500000" y2="36.000000"  style="stroke:black; stroke-linecap:round; stroke-width:0.25;"/>
<line x1="366.500000" y1="36.000000" x2="370.500000" y2="36.000000"  style="stroke:black; stroke-linecap:round; stroke-width:0.25;"/>
<line x1="370.500000" y1="36.000000" x2="374.500000" y2="36.000000"  style="stroke:black; stroke-linecap:round; stroke-width:0.25;"/>
<line x1="374.500000" y1="36.000000" x2="384.500000" y2="36.000000"  style="stroke:black; stroke-linecap:round; stroke-width:0.25;"/>
</svg>
