<?xml version="1.0"?>
<svg xmlns="http://www.w3.org/2000/svg" xmlns:xlink="http://www.w3.org/1999/xlink" viewBox="0 0 267.600000 168.000000" width="133.800000mm" height="84.000000mm" version="1.1">
<a xlink:href="delay-0x7fed78a20630.svg">
<rect x="1.000000" y="1.000000" width="266.600000" height="167.000000" rx="0" ry="0" style="stroke:none;fill:#cccccc;"/>
<rect x="0.000000" y="0.000000" width="266.600000" height="167.000000" rx="0" ry="0" style="stroke:none;fill:#ffffff;"/>
</a>
<text x="10.000000" y="7.000000" font-family="Arial" font-size="7"></text>
<a xlink:href="SR-0x7fed70903010.svg">
<rect x="62.800000" y="25.000000" width="24.000000" height="24.000000" rx="0" ry="0" style="stroke:none;fill:#cccccc;"/>
<rect x="61.800000" y="24.000000" width="24.000000" height="24.000000" rx="0" ry="0" style="stroke:none;fill:#003366;"/>
</a>
<a xlink:href="SR-0x7fed70903010.svg">
<text x="73.800000" y="38.000000" font-family="Arial" font-size="7" text-anchor="middle" fill="#FFFFFF">SR</text>
</a>
<circle cx="63.800000" cy="26.000000" r="1"/>
<rect x="25.000000" y="57.000000" width="25.800000" height="24.000000" rx="0" ry="0" style="stroke:none;fill:#cccccc;"/>
<rect x="24.000000" y="56.000000" width="25.800000" height="24.000000" rx="0" ry="0" style="stroke:none;fill:#f44800;"/>
<text x="36.900000" y="70.000000" font-family="Arial" font-size="7" text-anchor="middle" fill="#FFFFFF">0.966</text>
<circle cx="26.000000" cy="58.000000" r="1"/>
<rect x="58.800000" y="57.000000" width="25.800000" height="24.000000" rx="0" ry="0" style="stroke:none;fill:#cccccc;"/>
<rect x="57.800000" y="56.000000" width="25.800000" height="24.000000" rx="0" ry="0" style="stroke:none;fill:#4B71A1;"/>
<text x="70.700000" y="70.000000" font-family="Arial" font-size="7" text-anchor="middle" fill="#FFFFFF">float</text>
<circle cx="59.800000" cy="58.000000" r="1"/>
<line x1="54.800000" y1="67.000000" x2="57.800000" y2="68.000000"  transform="rotate(0.000000,57.800000,68.000000)" style="stroke: black; stroke-width:0.25;"/>
<line x1="54.800000" y1="69.000000" x2="57.800000" y2="68.000000"  transform="rotate(0.000000,57.800000,68.000000)" style="stroke: black; stroke-width:0.25;"/>
<a xlink:href="c-0x7fed71533b00.svg">
<rect x="25.900000" y="89.000000" width="24.000000" height="24.000000" rx="0" ry="0" style="stroke:none;fill:#cccccc;"/>
<rect x="24.900000" y="88.000000" width="24.000000" height="24.000000" rx="0" ry="0" style="stroke:none;fill:#003366;"/>
</a>
<a xlink:href="c-0x7fed71533b00.svg">
<text x="36.900000" y="102.000000" font-family="Arial" font-size="7" text-anchor="middle" fill="#FFFFFF">c</text>
</a>
<circle cx="26.900000" cy="90.000000" r="1"/>
<rect x="57.900000" y="89.000000" width="25.800000" height="24.000000" rx="0" ry="0" style="stroke:none;fill:#cccccc;"/>
<rect x="56.900000" y="88.000000" width="25.800000" height="24.000000" rx="0" ry="0" style="stroke:none;fill:#4B71A1;"/>
<text x="69.800000" y="102.000000" font-family="Arial" font-size="7" text-anchor="middle" fill="#FFFFFF">float</text>
<circle cx="58.900000" cy="90.000000" r="1"/>
<line x1="53.900000" y1="99.000000" x2="56.900000" y2="100.000000"  transform="rotate(0.000000,56.900000,100.000000)" style="stroke: black; stroke-width:0.25;"/>
<line x1="53.900000" y1="101.000000" x2="56.900000" y2="100.000000"  transform="rotate(0.000000,56.900000,100.000000)" style="stroke: black; stroke-width:0.25;"/>
<rect x="100.600000" y="73.000000" width="24.000000" height="24.000000" rx="0" ry="0" style="stroke:none;fill:#cccccc;"/>
<rect x="99.600000" y="72.000000" width="24.000000" height="24.000000" rx="0" ry="0" style="stroke:none;fill:#4B71A1;"/>
<text x="111.600000" y="86.000000" font-family="Arial" font-size="7" text-anchor="middle" fill="#FFFFFF">/</text>
<circle cx="101.600000" cy="74.000000" r="1"/>
<line x1="96.600000" y1="79.000000" x2="99.600000" y2="80.000000"  transform="rotate(0.000000,99.600000,80.000000)" style="stroke: black; stroke-width:0.25;"/>
<line x1="96.600000" y1="81.000000" x2="99.600000" y2="80.000000"  transform="rotate(0.000000,99.600000,80.000000)" style="stroke: black; stroke-width:0.25;"/>
<line x1="96.600000" y1="87.000000" x2="99.600000" y2="88.000000"  transform="rotate(0.000000,99.600000,88.000000)" style="stroke: black; stroke-width:0.25;"/>
<line x1="96.600000" y1="89.000000" x2="99.600000" y2="88.000000"  transform="rotate(0.000000,99.600000,88.000000)" style="stroke: black; stroke-width:0.25;"/>
<rect x="140.600000" y="57.000000" width="24.000000" height="24.000000" rx="0" ry="0" style="stroke:none;fill:#cccccc;"/>
<rect x="139.600000" y="56.000000" width="24.000000" height="24.000000" rx="0" ry="0" style="stroke:none;fill:#4B71A1;"/>
<text x="151.600000" y="70.000000" font-family="Arial" font-size="7" text-anchor="middle" fill="#FFFFFF">*</text>
<circle cx="141.600000" cy="58.000000" r="1"/>
<line x1="136.600000" y1="63.000000" x2="139.600000" y2="64.000000"  transform="rotate(0.000000,139.600000,64.000000)" style="stroke: black; stroke-width:0.25;"/>
<line x1="136.600000" y1="65.000000" x2="139.600000" y2="64.000000"  transform="rotate(0.000000,139.600000,64.000000)" style="stroke: black; stroke-width:0.25;"/>
<line x1="136.600000" y1="71.000000" x2="139.600000" y2="72.000000"  transform="rotate(0.000000,139.600000,72.000000)" style="stroke: black; stroke-width:0.25;"/>
<line x1="136.600000" y1="73.000000" x2="139.600000" y2="72.000000"  transform="rotate(0.000000,139.600000,72.000000)" style="stroke: black; stroke-width:0.25;"/>
<rect x="82.800000" y="121.000000" width="24.000000" height="24.000000" rx="0" ry="0" style="stroke:none;fill:#cccccc;"/>
<rect x="81.800000" y="120.000000" width="24.000000" height="24.000000" rx="0" ry="0" style="stroke:none;fill:#f44800;"/>
<text x="93.800000" y="134.000000" font-family="Arial" font-size="7" text-anchor="middle" fill="#FFFFFF">0.5</text>
<circle cx="83.800000" cy="122.000000" r="1"/>
<rect x="180.600000" y="73.000000" width="24.000000" height="24.000000" rx="0" ry="0" style="stroke:none;fill:#cccccc;"/>
<rect x="179.600000" y="72.000000" width="24.000000" height="24.000000" rx="0" ry="0" style="stroke:none;fill:#4B71A1;"/>
<text x="191.600000" y="86.000000" font-family="Arial" font-size="7" text-anchor="middle" fill="#FFFFFF">+</text>
<circle cx="181.600000" cy="74.000000" r="1"/>
<line x1="176.600000" y1="79.000000" x2="179.600000" y2="80.000000"  transform="rotate(0.000000,179.600000,80.000000)" style="stroke: black; stroke-width:0.25;"/>
<line x1="176.600000" y1="81.000000" x2="179.600000" y2="80.000000"  transform="rotate(0.000000,179.600000,80.000000)" style="stroke: black; stroke-width:0.25;"/>
<line x1="176.600000" y1="87.000000" x2="179.600000" y2="88.000000"  transform="rotate(0.000000,179.600000,88.000000)" style="stroke: black; stroke-width:0.25;"/>
<line x1="176.600000" y1="89.000000" x2="179.600000" y2="88.000000"  transform="rotate(0.000000,179.600000,88.000000)" style="stroke: black; stroke-width:0.25;"/>
<rect x="212.600000" y="73.000000" width="24.000000" height="24.000000" rx="0" ry="0" style="stroke:none;fill:#cccccc;"/>
<rect x="211.600000" y="72.000000" width="24.000000" height="24.000000" rx="0" ry="0" style="stroke:none;fill:#4B71A1;"/>
<text x="223.600000" y="86.000000" font-family="Arial" font-size="7" text-anchor="middle" fill="#FFFFFF">int</text>
<circle cx="213.600000" cy="74.000000" r="1"/>
<line x1="208.600000" y1="83.000000" x2="211.600000" y2="84.000000"  transform="rotate(0.000000,211.600000,84.000000)" style="stroke: black; stroke-width:0.25;"/>
<line x1="208.600000" y1="85.000000" x2="211.600000" y2="84.000000"  transform="rotate(0.000000,211.600000,84.000000)" style="stroke: black; stroke-width:0.25;"/>
<line x1="15.000000" y1="15.000000" x2="15.000000" y2="153.000000"  style="stroke: black; stroke-linecap:round; stroke-width:0.25; stroke-dasharray:3,3;"/>
<line x1="15.000000" y1="153.000000" x2="252.600000" y2="153.000000"  style="stroke: black; stroke-linecap:round; stroke-width:0.25; stroke-dasharray:3,3;"/>
<line x1="252.600000" y1="153.000000" x2="252.600000" y2="15.000000"  style="stroke: black; stroke-linecap:round; stroke-width:0.25; stroke-dasharray:3,3;"/>
<line x1="15.000000" y1="15.000000" x2="20.000000" y2="15.000000"  style="stroke: black; stroke-linecap:round; stroke-width:0.25; stroke-dasharray:3,3;"/>
<line x1="139.325000" y1="15.000000" x2="252.600000" y2="15.000000"  style="stroke: black; stroke-linecap:round; stroke-width:0.25; stroke-dasharray:3,3;"/>
<text x="20.000000" y="17.000000" font-family="Arial" font-size="7">meters2samples(0.9659999999999993f)</text>
<line x1="254.600000" y1="83.000000" x2="257.600000" y2="84.000000"  transform="rotate(0.000000,257.600000,84.000000)" style="stroke: black; stroke-width:0.25;"/>
<line x1="254.600000" y1="85.000000" x2="257.600000" y2="84.000000"  transform="rotate(0.000000,257.600000,84.000000)" style="stroke: black; stroke-width:0.25;"/>
<line x1="48.900000" y1="100.000000" x2="52.900000" y2="100.000000"  style="stroke:black; stroke-linecap:round; stroke-width:0.25;"/>
<line x1="49.800000" y1="68.000000" x2="53.800000" y2="68.000000"  style="stroke:black; stroke-linecap:round; stroke-width:0.25;"/>
<line x1="52.900000" y1="100.000000" x2="52.900000" y2="100.000000"  style="stroke:black; stroke-linecap:round; stroke-width:0.25;"/>
<line x1="52.900000" y1="100.000000" x2="56.900000" y2="100.000000"  style="stroke:black; stroke-linecap:round; stroke-width:0.25;"/>
<line x1="53.800000" y1="68.000000" x2="53.800000" y2="68.000000"  style="stroke:black; stroke-linecap:round; stroke-width:0.25;"/>
<line x1="53.800000" y1="68.000000" x2="57.800000" y2="68.000000"  style="stroke:black; stroke-linecap:round; stroke-width:0.25;"/>
<line x1="82.700000" y1="100.000000" x2="86.700000" y2="100.000000"  style="stroke:black; stroke-linecap:round; stroke-width:0.25;"/>
<line x1="83.600000" y1="68.000000" x2="87.600000" y2="68.000000"  style="stroke:black; stroke-linecap:round; stroke-width:0.25;"/>
<line x1="85.800000" y1="36.000000" x2="89.800000" y2="36.000000"  style="stroke:black; stroke-linecap:round; stroke-width:0.25;"/>
<line x1="86.700000" y1="100.000000" x2="87.600000" y2="100.000000"  style="stroke:black; stroke-linecap:round; stroke-width:0.25;"/>
<line x1="87.600000" y1="68.000000" x2="95.600000" y2="68.000000"  style="stroke:black; stroke-linecap:round; stroke-width:0.25;"/>
<line x1="87.600000" y1="88.000000" x2="95.600000" y2="88.000000"  style="stroke:black; stroke-linecap:round; stroke-width:0.25;"/>
<line x1="87.600000" y1="100.000000" x2="87.600000" y2="88.000000"  style="stroke:black; stroke-linecap:round; stroke-width:0.25;"/>
<line x1="87.600000" y1="100.000000" x2="87.600000" y2="100.000000"  style="stroke:black; stroke-linecap:round; stroke-width:0.25;"/>
<line x1="89.800000" y1="36.000000" x2="127.600000" y2="36.000000"  style="stroke:black; stroke-linecap:round; stroke-width:0.25;"/>
<line x1="95.600000" y1="68.000000" x2="95.600000" y2="80.000000"  style="stroke:black; stroke-linecap:round; stroke-width:0.25;"/>
<line x1="95.600000" y1="80.000000" x2="95.600000" y2="80.000000"  style="stroke:black; stroke-linecap:round; stroke-width:0.25;"/>
<line x1="95.600000" y1="80.000000" x2="99.600000" y2="80.000000"  style="stroke:black; stroke-linecap:round; stroke-width:0.25;"/>
<line x1="95.600000" y1="88.000000" x2="99.600000" y2="88.000000"  style="stroke:black; stroke-linecap:round; stroke-width:0.25;"/>
<line x1="105.800000" y1="132.000000" x2="109.800000" y2="132.000000"  style="stroke:black; stroke-linecap:round; stroke-width:0.25;"/>
<line x1="109.800000" y1="132.000000" x2="167.600000" y2="132.000000"  style="stroke:black; stroke-linecap:round; stroke-width:0.25;"/>
<line x1="123.600000" y1="84.000000" x2="127.600000" y2="84.000000"  style="stroke:black; stroke-linecap:round; stroke-width:0.25;"/>
<line x1="127.600000" y1="36.000000" x2="135.600000" y2="36.000000"  style="stroke:black; stroke-linecap:round; stroke-width:0.25;"/>
<line x1="127.600000" y1="72.000000" x2="135.600000" y2="72.000000"  style="stroke:black; stroke-linecap:round; stroke-width:0.25;"/>
<line x1="127.600000" y1="84.000000" x2="127.600000" y2="72.000000"  style="stroke:black; stroke-linecap:round; stroke-width:0.25;"/>
<line x1="127.600000" y1="84.000000" x2="127.600000" y2="84.000000"  style="stroke:black; stroke-linecap:round; stroke-width:0.25;"/>
<line x1="135.600000" y1="36.000000" x2="135.600000" y2="64.000000"  style="stroke:black; stroke-linecap:round; stroke-width:0.25;"/>
<line x1="135.600000" y1="64.000000" x2="135.600000" y2="64.000000"  style="stroke:black; stroke-linecap:round; stroke-width:0.25;"/>
<line x1="135.600000" y1="64.000000" x2="139.600000" y2="64.000000"  style="stroke:black; stroke-linecap:round; stroke-width:0.25;"/>
<line x1="135.600000" y1="72.000000" x2="139.600000" y2="72.000000"  style="stroke:black; stroke-linecap:round; stroke-width:0.25;"/>
<line x1="163.600000" y1="68.000000" x2="167.600000" y2="68.000000"  style="stroke:black; stroke-linecap:round; stroke-width:0.25;"/>
<line x1="167.600000" y1="68.000000" x2="175.600000" y2="68.000000"  style="stroke:black; stroke-linecap:round; stroke-width:0.25;"/>
<line x1="167.600000" y1="88.000000" x2="175.600000" y2="88.000000"  style="stroke:black; stroke-linecap:round; stroke-width:0.25;"/>
<line x1="167.600000" y1="132.000000" x2="167.600000" y2="88.000000"  style="stroke:black; stroke-linecap:round; stroke-width:0.25;"/>
<line x1="167.600000" y1="132.000000" x2="167.600000" y2="132.000000"  style="stroke:black; stroke-linecap:round; stroke-width:0.25;"/>
<line x1="175.600000" y1="68.000000" x2="175.600000" y2="80.000000"  style="stroke:black; stroke-linecap:round; stroke-width:0.25;"/>
<line x1="175.600000" y1="80.000000" x2="175.600000" y2="80.000000"  style="stroke:black; stroke-linecap:round; stroke-width:0.25;"/>
<line x1="175.600000" y1="80.000000" x2="179.600000" y2="80.000000"  style="stroke:black; stroke-linecap:round; stroke-width:0.25;"/>
<line x1="175.600000" y1="88.000000" x2="179.600000" y2="88.000000"  style="stroke:black; stroke-linecap:round; stroke-width:0.25;"/>
<line x1="203.600000" y1="84.000000" x2="207.600000" y2="84.000000"  style="stroke:black; stroke-linecap:round; stroke-width:0.25;"/>
<line x1="207.600000" y1="84.000000" x2="207.600000" y2="84.000000"  style="stroke:black; stroke-linecap:round; stroke-width:0.25;"/>
<line x1="207.600000" y1="84.000000" x2="211.600000" y2="84.000000"  style="stroke:black; stroke-linecap:round; stroke-width:0.25;"/>
<line x1="235.600000" y1="84.000000" x2="239.600000" y2="84.000000"  style="stroke:black; stroke-linecap:round; stroke-width:0.25;"/>
<line x1="239.600000" y1="84.000000" x2="239.600000" y2="84.000000"  style="stroke:black; stroke-linecap:round; stroke-width:0.25;"/>
<line x1="239.600000" y1="84.000000" x2="243.600000" y2="84.000000"  style="stroke:black; stroke-linecap:round; stroke-width:0.25;"/>
<line x1="243.600000" y1="84.000000" x2="247.600000" y2="84.000000"  style="stroke:black; stroke-linecap:round; stroke-width:0.25;"/>
<line x1="247.600000" y1="84.000000" x2="257.600000" y2="84.000000"  style="stroke:black; stroke-linecap:round; stroke-width:0.25;"/>
</svg>
