<?xml version="1.0"?>
<svg xmlns="http://www.w3.org/2000/svg" xmlns:xlink="http://www.w3.org/1999/xlink" viewBox="0 0 181.800000 176.000000" width="90.900000mm" height="88.000000mm" version="1.1">
<a xlink:href="b1-0x7fed7592da70.svg">
<rect x="1.000000" y="1.000000" width="180.800000" height="175.000000" rx="0" ry="0" style="stroke:none;fill:#cccccc;"/>
<rect x="0.000000" y="0.000000" width="180.800000" height="175.000000" rx="0" ry="0" style="stroke:none;fill:#ffffff;"/>
</a>
<text x="10.000000" y="7.000000" font-family="Arial" font-size="7"></text>
<rect x="48.550000" y="35.000000" width="38.700000" height="24.000000" rx="0" ry="0" style="stroke:none;fill:#cccccc;"/>
<rect x="47.550000" y="34.000000" width="38.700000" height="24.000000" rx="0" ry="0" style="stroke:none;fill:#f44800;"/>
<text x="66.900000" y="48.000000" font-family="Arial" font-size="7" text-anchor="middle" fill="#FFFFFF">343.215</text>
<circle cx="49.550000" cy="36.000000" r="1"/>
<line x1="38.550000" y1="25.000000" x2="38.550000" y2="67.000000"  style="stroke: black; stroke-linecap:round; stroke-width:0.25; stroke-dasharray:3,3;"/>
<line x1="38.550000" y1="67.000000" x2="95.250000" y2="67.000000"  style="stroke: black; stroke-linecap:round; stroke-width:0.25; stroke-dasharray:3,3;"/>
<line x1="95.250000" y1="67.000000" x2="95.250000" y2="25.000000"  style="stroke: black; stroke-linecap:round; stroke-width:0.25; stroke-dasharray:3,3;"/>
<line x1="38.550000" y1="25.000000" x2="43.550000" y2="25.000000"  style="stroke: black; stroke-linecap:round; stroke-width:0.25; stroke-dasharray:3,3;"/>
<line x1="53.225000" y1="25.000000" x2="95.250000" y2="25.000000"  style="stroke: black; stroke-linecap:round; stroke-width:0.25; stroke-dasharray:3,3;"/>
<text x="43.550000" y="27.000000" font-family="Arial" font-size="7">c</text>
<rect x="35.000000" y="87.000000" width="25.800000" height="24.000000" rx="0" ry="0" style="stroke:none;fill:#cccccc;"/>
<rect x="34.000000" y="86.000000" width="25.800000" height="24.000000" rx="0" ry="0" style="stroke:none;fill:#f44800;"/>
<text x="46.900000" y="100.000000" font-family="Arial" font-size="7" text-anchor="middle" fill="#FFFFFF">5.576</text>
<circle cx="36.000000" cy="88.000000" r="1"/>
<line x1="25.000000" y1="77.000000" x2="25.000000" y2="119.000000"  style="stroke: black; stroke-linecap:round; stroke-width:0.25; stroke-dasharray:3,3;"/>
<line x1="25.000000" y1="119.000000" x2="68.800000" y2="119.000000"  style="stroke: black; stroke-linecap:round; stroke-width:0.25; stroke-dasharray:3,3;"/>
<line x1="68.800000" y1="119.000000" x2="68.800000" y2="77.000000"  style="stroke: black; stroke-linecap:round; stroke-width:0.25; stroke-dasharray:3,3;"/>
<line x1="25.000000" y1="77.000000" x2="30.000000" y2="77.000000"  style="stroke: black; stroke-linecap:round; stroke-width:0.25; stroke-dasharray:3,3;"/>
<line x1="52.575000" y1="77.000000" x2="68.800000" y2="77.000000"  style="stroke: black; stroke-linecap:round; stroke-width:0.25; stroke-dasharray:3,3;"/>
<text x="30.000000" y="79.000000" font-family="Arial" font-size="7">r_max</text>
<a xlink:href="SR-0x7fed71535340.svg">
<rect x="35.900000" y="129.000000" width="24.000000" height="24.000000" rx="0" ry="0" style="stroke:none;fill:#cccccc;"/>
<rect x="34.900000" y="128.000000" width="24.000000" height="24.000000" rx="0" ry="0" style="stroke:none;fill:#003366;"/>
</a>
<a xlink:href="SR-0x7fed71535340.svg">
<text x="46.900000" y="142.000000" font-family="Arial" font-size="7" text-anchor="middle" fill="#FFFFFF">SR</text>
</a>
<circle cx="36.900000" cy="130.000000" r="1"/>
<rect x="86.800000" y="103.000000" width="24.000000" height="24.000000" rx="0" ry="0" style="stroke:none;fill:#cccccc;"/>
<rect x="85.800000" y="102.000000" width="24.000000" height="24.000000" rx="0" ry="0" style="stroke:none;fill:#4B71A1;"/>
<text x="97.800000" y="116.000000" font-family="Arial" font-size="7" text-anchor="middle" fill="#FFFFFF">*</text>
<circle cx="87.800000" cy="104.000000" r="1"/>
<line x1="82.800000" y1="109.000000" x2="85.800000" y2="110.000000"  transform="rotate(0.000000,85.800000,110.000000)" style="stroke: black; stroke-width:0.25;"/>
<line x1="82.800000" y1="111.000000" x2="85.800000" y2="110.000000"  transform="rotate(0.000000,85.800000,110.000000)" style="stroke: black; stroke-width:0.25;"/>
<line x1="82.800000" y1="117.000000" x2="85.800000" y2="118.000000"  transform="rotate(0.000000,85.800000,118.000000)" style="stroke: black; stroke-width:0.25;"/>
<line x1="82.800000" y1="119.000000" x2="85.800000" y2="118.000000"  transform="rotate(0.000000,85.800000,118.000000)" style="stroke: black; stroke-width:0.25;"/>
<rect x="126.800000" y="77.000000" width="24.000000" height="24.000000" rx="0" ry="0" style="stroke:none;fill:#cccccc;"/>
<rect x="125.800000" y="76.000000" width="24.000000" height="24.000000" rx="0" ry="0" style="stroke:none;fill:#4B71A1;"/>
<text x="137.800000" y="90.000000" font-family="Arial" font-size="7" text-anchor="middle" fill="#FFFFFF">/</text>
<circle cx="127.800000" cy="78.000000" r="1"/>
<line x1="122.800000" y1="83.000000" x2="125.800000" y2="84.000000"  transform="rotate(0.000000,125.800000,84.000000)" style="stroke: black; stroke-width:0.25;"/>
<line x1="122.800000" y1="85.000000" x2="125.800000" y2="84.000000"  transform="rotate(0.000000,125.800000,84.000000)" style="stroke: black; stroke-width:0.25;"/>
<line x1="122.800000" y1="91.000000" x2="125.800000" y2="92.000000"  transform="rotate(0.000000,125.800000,92.000000)" style="stroke: black; stroke-width:0.25;"/>
<line x1="122.800000" y1="93.000000" x2="125.800000" y2="92.000000"  transform="rotate(0.000000,125.800000,92.000000)" style="stroke: black; stroke-width:0.25;"/>
<line x1="15.000000" y1="15.000000" x2="15.000000" y2="161.000000"  style="stroke: black; stroke-linecap:round; stroke-width:0.25; stroke-dasharray:3,3;"/>
<line x1="15.000000" y1="161.000000" x2="166.800000" y2="161.000000"  style="stroke: black; stroke-linecap:round; stroke-width:0.25; stroke-dasharray:3,3;"/>
<line x1="166.800000" y1="161.000000" x2="166.800000" y2="15.000000"  style="stroke: black; stroke-linecap:round; stroke-width:0.25; stroke-dasharray:3,3;"/>
<line x1="15.000000" y1="15.000000" x2="20.000000" y2="15.000000"  style="stroke: black; stroke-linecap:round; stroke-width:0.25; stroke-dasharray:3,3;"/>
<line x1="42.575000" y1="15.000000" x2="166.800000" y2="15.000000"  style="stroke: black; stroke-linecap:round; stroke-width:0.25; stroke-dasharray:3,3;"/>
<text x="20.000000" y="17.000000" font-family="Arial" font-size="7">omega</text>
<line x1="168.800000" y1="87.000000" x2="171.800000" y2="88.000000"  transform="rotate(0.000000,171.800000,88.000000)" style="stroke: black; stroke-width:0.25;"/>
<line x1="168.800000" y1="89.000000" x2="171.800000" y2="88.000000"  transform="rotate(0.000000,171.800000,88.000000)" style="stroke: black; stroke-width:0.25;"/>
<line x1="58.900000" y1="140.000000" x2="62.900000" y2="140.000000"  style="stroke:black; stroke-linecap:round; stroke-width:0.25;"/>
<line x1="59.800000" y1="98.000000" x2="63.800000" y2="98.000000"  style="stroke:black; stroke-linecap:round; stroke-width:0.25;"/>
<line x1="62.900000" y1="140.000000" x2="73.800000" y2="140.000000"  style="stroke:black; stroke-linecap:round; stroke-width:0.25;"/>
<line x1="63.800000" y1="98.000000" x2="73.800000" y2="98.000000"  style="stroke:black; stroke-linecap:round; stroke-width:0.25;"/>
<line x1="73.800000" y1="98.000000" x2="81.800000" y2="98.000000"  style="stroke:black; stroke-linecap:round; stroke-width:0.25;"/>
<line x1="73.800000" y1="118.000000" x2="81.800000" y2="118.000000"  style="stroke:black; stroke-linecap:round; stroke-width:0.25;"/>
<line x1="73.800000" y1="140.000000" x2="73.800000" y2="118.000000"  style="stroke:black; stroke-linecap:round; stroke-width:0.25;"/>
<line x1="73.800000" y1="140.000000" x2="73.800000" y2="140.000000"  style="stroke:black; stroke-linecap:round; stroke-width:0.25;"/>
<line x1="81.800000" y1="98.000000" x2="81.800000" y2="110.000000"  style="stroke:black; stroke-linecap:round; stroke-width:0.25;"/>
<line x1="81.800000" y1="110.000000" x2="81.800000" y2="110.000000"  style="stroke:black; stroke-linecap:round; stroke-width:0.25;"/>
<line x1="81.800000" y1="110.000000" x2="85.800000" y2="110.000000"  style="stroke:black; stroke-linecap:round; stroke-width:0.25;"/>
<line x1="81.800000" y1="118.000000" x2="85.800000" y2="118.000000"  style="stroke:black; stroke-linecap:round; stroke-width:0.25;"/>
<line x1="86.250000" y1="46.000000" x2="90.250000" y2="46.000000"  style="stroke:black; stroke-linecap:round; stroke-width:0.25;"/>
<line x1="90.250000" y1="46.000000" x2="100.250000" y2="46.000000"  style="stroke:black; stroke-linecap:round; stroke-width:0.25;"/>
<line x1="100.250000" y1="46.000000" x2="113.800000" y2="46.000000"  style="stroke:black; stroke-linecap:round; stroke-width:0.25;"/>
<line x1="109.800000" y1="114.000000" x2="113.800000" y2="114.000000"  style="stroke:black; stroke-linecap:round; stroke-width:0.25;"/>
<line x1="113.800000" y1="92.000000" x2="121.800000" y2="92.000000"  style="stroke:black; stroke-linecap:round; stroke-width:0.25;"/>
<line x1="113.800000" y1="114.000000" x2="113.800000" y2="92.000000"  style="stroke:black; stroke-linecap:round; stroke-width:0.25;"/>
<line x1="113.800000" y1="114.000000" x2="113.800000" y2="114.000000"  style="stroke:black; stroke-linecap:round; stroke-width:0.25;"/>
<line x1="113.800000" y1="46.000000" x2="121.800000" y2="46.000000"  style="stroke:black; stroke-linecap:round; stroke-width:0.25;"/>
<line x1="121.800000" y1="84.000000" x2="125.800000" y2="84.000000"  style="stroke:black; stroke-linecap:round; stroke-width:0.25;"/>
<line x1="121.800000" y1="92.000000" x2="125.800000" y2="92.000000"  style="stroke:black; stroke-linecap:round; stroke-width:0.25;"/>
<line x1="121.800000" y1="46.000000" x2="121.800000" y2="84.000000"  style="stroke:black; stroke-linecap:round; stroke-width:0.25;"/>
<line x1="121.800000" y1="84.000000" x2="121.800000" y2="84.000000"  style="stroke:black; stroke-linecap:round; stroke-width:0.25;"/>
<line x1="149.800000" y1="88.000000" x2="153.800000" y2="88.000000"  style="stroke:black; stroke-linecap:round; stroke-width:0.25;"/>
<line x1="153.800000" y1="88.000000" x2="153.800000" y2="88.000000"  style="stroke:black; stroke-linecap:round; stroke-width:0.25;"/>
<line x1="153.800000" y1="88.000000" x2="157.800000" y2="88.000000"  style="stroke:black; stroke-linecap:round; stroke-width:0.25;"/>
<line x1="157.800000" y1="88.000000" x2="161.800000" y2="88.000000"  style="stroke:black; stroke-linecap:round; stroke-width:0.25;"/>
<line x1="161.800000" y1="88.000000" x2="171.800000" y2="88.000000"  style="stroke:black; stroke-linecap:round; stroke-width:0.25;"/>
</svg>
