<?xml version="1.0"?>
<svg xmlns="http://www.w3.org/2000/svg" xmlns:xlink="http://www.w3.org/1999/xlink" viewBox="0 0 490.500000 112.000000" width="245.250000mm" height="56.000000mm" version="1.1">
<a xlink:href="process.svg">
<rect x="1.000000" y="1.000000" width="489.500000" height="111.000000" rx="0" ry="0" style="stroke:none;fill:#cccccc;"/>
<rect x="0.000000" y="0.000000" width="489.500000" height="111.000000" rx="0" ry="0" style="stroke:none;fill:#ffffff;"/>
</a>
<text x="10.000000" y="7.000000" font-family="Arial" font-size="7"></text>
<rect x="25.000000" y="45.000000" width="180.600000" height="24.000000" rx="0" ry="0" style="stroke:none;fill:#cccccc;"/>
<rect x="24.000000" y="44.000000" width="180.600000" height="24.000000" rx="0" ry="0" style="stroke:none;fill:#477881;"/>
<text x="114.300000" y="58.000000" font-family="Arial" font-size="7" text-anchor="middle" fill="#FFFFFF">hslider(gain, -10.0f, -30.0f, 10.0f, 1.0f)</text>
<circle cx="26.000000" cy="46.000000" r="1"/>
<a xlink:href="db2linear-0x7fed78f6b5c0.svg">
<rect x="213.600000" y="45.000000" width="38.700000" height="24.000000" rx="0" ry="0" style="stroke:none;fill:#cccccc;"/>
<rect x="212.600000" y="44.000000" width="38.700000" height="24.000000" rx="0" ry="0" style="stroke:none;fill:#003366;"/>
</a>
<a xlink:href="db2linear-0x7fed78f6b5c0.svg">
<text x="231.950000" y="58.000000" font-family="Arial" font-size="7" text-anchor="middle" fill="#FFFFFF">db2linear</text>
</a>
<circle cx="214.600000" cy="46.000000" r="1"/>
<line x1="209.600000" y1="55.000000" x2="212.600000" y2="56.000000"  transform="rotate(0.000000,212.600000,56.000000)" style="stroke: black; stroke-width:0.25;"/>
<line x1="209.600000" y1="57.000000" x2="212.600000" y2="56.000000"  transform="rotate(0.000000,212.600000,56.000000)" style="stroke: black; stroke-width:0.25;"/>
<rect x="268.300000" y="33.000000" width="64.500000" height="24.000000" rx="0" ry="0" style="stroke:none;fill:#cccccc;"/>
<rect x="267.300000" y="32.000000" width="64.500000" height="24.000000" rx="0" ry="0" style="stroke:none;fill:#477881;"/>
<text x="299.550000" y="46.000000" font-family="Arial" font-size="7" text-anchor="middle" fill="#FFFFFF">checkbox(mute)</text>
<circle cx="269.300000" cy="34.000000" r="1"/>
<rect x="288.550000" y="65.000000" width="24.000000" height="24.000000" rx="0" ry="0" style="stroke:none;fill:#cccccc;"/>
<rect x="287.550000" y="64.000000" width="24.000000" height="24.000000" rx="0" ry="0" style="stroke:none;fill:#f44800;"/>
<text x="299.550000" y="78.000000" font-family="Arial" font-size="7" text-anchor="middle" fill="#FFFFFF">0.5</text>
<circle cx="289.550000" cy="66.000000" r="1"/>
<rect x="348.800000" y="49.000000" width="24.000000" height="24.000000" rx="0" ry="0" style="stroke:none;fill:#cccccc;"/>
<rect x="347.800000" y="48.000000" width="24.000000" height="24.000000" rx="0" ry="0" style="stroke:none;fill:#4B71A1;"/>
<text x="359.800000" y="62.000000" font-family="Arial" font-size="7" text-anchor="middle" fill="#FFFFFF">&lt;</text>
<circle cx="349.800000" cy="50.000000" r="1"/>
<line x1="344.800000" y1="55.000000" x2="347.800000" y2="56.000000"  transform="rotate(0.000000,347.800000,56.000000)" style="stroke: black; stroke-width:0.25;"/>
<line x1="344.800000" y1="57.000000" x2="347.800000" y2="56.000000"  transform="rotate(0.000000,347.800000,56.000000)" style="stroke: black; stroke-width:0.25;"/>
<line x1="344.800000" y1="63.000000" x2="347.800000" y2="64.000000"  transform="rotate(0.000000,347.800000,64.000000)" style="stroke: black; stroke-width:0.25;"/>
<line x1="344.800000" y1="65.000000" x2="347.800000" y2="64.000000"  transform="rotate(0.000000,347.800000,64.000000)" style="stroke: black; stroke-width:0.25;"/>
<rect x="388.800000" y="45.000000" width="24.000000" height="24.000000" rx="0" ry="0" style="stroke:none;fill:#cccccc;"/>
<rect x="387.800000" y="44.000000" width="24.000000" height="24.000000" rx="0" ry="0" style="stroke:none;fill:#4B71A1;"/>
<text x="399.800000" y="58.000000" font-family="Arial" font-size="7" text-anchor="middle" fill="#FFFFFF">*</text>
<circle cx="389.800000" cy="46.000000" r="1"/>
<line x1="384.800000" y1="51.000000" x2="387.800000" y2="52.000000"  transform="rotate(0.000000,387.800000,52.000000)" style="stroke: black; stroke-width:0.25;"/>
<line x1="384.800000" y1="53.000000" x2="387.800000" y2="52.000000"  transform="rotate(0.000000,387.800000,52.000000)" style="stroke: black; stroke-width:0.25;"/>
<line x1="384.800000" y1="59.000000" x2="387.800000" y2="60.000000"  transform="rotate(0.000000,387.800000,60.000000)" style="stroke: black; stroke-width:0.25;"/>
<line x1="384.800000" y1="61.000000" x2="387.800000" y2="60.000000"  transform="rotate(0.000000,387.800000,60.000000)" style="stroke: black; stroke-width:0.25;"/>
<a xlink:href="dezipper-0x7fed6e65a070.svg">
<rect x="420.800000" y="45.000000" width="38.700000" height="24.000000" rx="0" ry="0" style="stroke:none;fill:#cccccc;"/>
<rect x="419.800000" y="44.000000" width="38.700000" height="24.000000" rx="0" ry="0" style="stroke:none;fill:#003366;"/>
</a>
<a xlink:href="dezipper-0x7fed6e65a070.svg">
<text x="439.150000" y="58.000000" font-family="Arial" font-size="7" text-anchor="middle" fill="#FFFFFF">dezipper</text>
</a>
<circle cx="421.800000" cy="46.000000" r="1"/>
<line x1="416.800000" y1="55.000000" x2="419.800000" y2="56.000000"  transform="rotate(0.000000,419.800000,56.000000)" style="stroke: black; stroke-width:0.25;"/>
<line x1="416.800000" y1="57.000000" x2="419.800000" y2="56.000000"  transform="rotate(0.000000,419.800000,56.000000)" style="stroke: black; stroke-width:0.25;"/>
<line x1="15.000000" y1="15.000000" x2="15.000000" y2="97.000000"  style="stroke: black; stroke-linecap:round; stroke-width:0.25; stroke-dasharray:3,3;"/>
<line x1="15.000000" y1="97.000000" x2="475.500000" y2="97.000000"  style="stroke: black; stroke-linecap:round; stroke-width:0.25; stroke-dasharray:3,3;"/>
<line x1="475.500000" y1="97.000000" x2="475.500000" y2="15.000000"  style="stroke: black; stroke-linecap:round; stroke-width:0.25; stroke-dasharray:3,3;"/>
<line x1="15.000000" y1="15.000000" x2="20.000000" y2="15.000000"  style="stroke: black; stroke-linecap:round; stroke-width:0.25; stroke-dasharray:3,3;"/>
<line x1="61.925000" y1="15.000000" x2="475.500000" y2="15.000000"  style="stroke: black; stroke-linecap:round; stroke-width:0.25; stroke-dasharray:3,3;"/>
<text x="20.000000" y="17.000000" font-family="Arial" font-size="7">output_gain</text>
<line x1="477.500000" y1="55.000000" x2="480.500000" y2="56.000000"  transform="rotate(0.000000,480.500000,56.000000)" style="stroke: black; stroke-width:0.25;"/>
<line x1="477.500000" y1="57.000000" x2="480.500000" y2="56.000000"  transform="rotate(0.000000,480.500000,56.000000)" style="stroke: black; stroke-width:0.25;"/>
<line x1="204.600000" y1="56.000000" x2="208.600000" y2="56.000000"  style="stroke:black; stroke-linecap:round; stroke-width:0.25;"/>
<line x1="208.600000" y1="56.000000" x2="208.600000" y2="56.000000"  style="stroke:black; stroke-linecap:round; stroke-width:0.25;"/>
<line x1="208.600000" y1="56.000000" x2="212.600000" y2="56.000000"  style="stroke:black; stroke-linecap:round; stroke-width:0.25;"/>
<line x1="251.300000" y1="56.000000" x2="255.300000" y2="56.000000"  style="stroke:black; stroke-linecap:round; stroke-width:0.25;"/>
<line x1="255.300000" y1="24.000000" x2="263.300000" y2="24.000000"  style="stroke:black; stroke-linecap:round; stroke-width:0.25;"/>
<line x1="255.300000" y1="56.000000" x2="255.300000" y2="24.000000"  style="stroke:black; stroke-linecap:round; stroke-width:0.25;"/>
<line x1="255.300000" y1="56.000000" x2="255.300000" y2="56.000000"  style="stroke:black; stroke-linecap:round; stroke-width:0.25;"/>
<line x1="263.300000" y1="24.000000" x2="319.550000" y2="24.000000"  style="stroke:black; stroke-linecap:round; stroke-width:0.25;"/>
<line x1="311.550000" y1="76.000000" x2="315.550000" y2="76.000000"  style="stroke:black; stroke-linecap:round; stroke-width:0.25;"/>
<line x1="315.550000" y1="76.000000" x2="335.800000" y2="76.000000"  style="stroke:black; stroke-linecap:round; stroke-width:0.25;"/>
<line x1="319.550000" y1="24.000000" x2="375.800000" y2="24.000000"  style="stroke:black; stroke-linecap:round; stroke-width:0.25;"/>
<line x1="331.800000" y1="44.000000" x2="335.800000" y2="44.000000"  style="stroke:black; stroke-linecap:round; stroke-width:0.25;"/>
<line x1="335.800000" y1="44.000000" x2="343.800000" y2="44.000000"  style="stroke:black; stroke-linecap:round; stroke-width:0.25;"/>
<line x1="335.800000" y1="64.000000" x2="343.800000" y2="64.000000"  style="stroke:black; stroke-linecap:round; stroke-width:0.25;"/>
<line x1="335.800000" y1="76.000000" x2="335.800000" y2="64.000000"  style="stroke:black; stroke-linecap:round; stroke-width:0.25;"/>
<line x1="335.800000" y1="76.000000" x2="335.800000" y2="76.000000"  style="stroke:black; stroke-linecap:round; stroke-width:0.25;"/>
<line x1="343.800000" y1="44.000000" x2="343.800000" y2="56.000000"  style="stroke:black; stroke-linecap:round; stroke-width:0.25;"/>
<line x1="343.800000" y1="56.000000" x2="343.800000" y2="56.000000"  style="stroke:black; stroke-linecap:round; stroke-width:0.25;"/>
<line x1="343.800000" y1="56.000000" x2="347.800000" y2="56.000000"  style="stroke:black; stroke-linecap:round; stroke-width:0.25;"/>
<line x1="343.800000" y1="64.000000" x2="347.800000" y2="64.000000"  style="stroke:black; stroke-linecap:round; stroke-width:0.25;"/>
<line x1="371.800000" y1="60.000000" x2="375.800000" y2="60.000000"  style="stroke:black; stroke-linecap:round; stroke-width:0.25;"/>
<line x1="375.800000" y1="24.000000" x2="383.800000" y2="24.000000"  style="stroke:black; stroke-linecap:round; stroke-width:0.25;"/>
<line x1="375.800000" y1="60.000000" x2="383.800000" y2="60.000000"  style="stroke:black; stroke-linecap:round; stroke-width:0.25;"/>
<line x1="383.800000" y1="24.000000" x2="383.800000" y2="52.000000"  style="stroke:black; stroke-linecap:round; stroke-width:0.25;"/>
<line x1="383.800000" y1="52.000000" x2="383.800000" y2="52.000000"  style="stroke:black; stroke-linecap:round; stroke-width:0.25;"/>
<line x1="383.800000" y1="52.000000" x2="387.800000" y2="52.000000"  style="stroke:black; stroke-linecap:round; stroke-width:0.25;"/>
<line x1="383.800000" y1="60.000000" x2="387.800000" y2="60.000000"  style="stroke:black; stroke-linecap:round; stroke-width:0.25;"/>
<line x1="411.800000" y1="56.000000" x2="415.800000" y2="56.000000"  style="stroke:black; stroke-linecap:round; stroke-width:0.25;"/>
<line x1="415.800000" y1="56.000000" x2="415.800000" y2="56.000000"  style="stroke:black; stroke-linecap:round; stroke-width:0.25;"/>
<line x1="415.800000" y1="56.000000" x2="419.800000" y2="56.000000"  style="stroke:black; stroke-linecap:round; stroke-width:0.25;"/>
<line x1="458.500000" y1="56.000000" x2="462.500000" y2="56.000000"  style="stroke:black; stroke-linecap:round; stroke-width:0.25;"/>
<line x1="462.500000" y1="56.000000" x2="462.500000" y2="56.000000"  style="stroke:black; stroke-linecap:round; stroke-width:0.25;"/>
<line x1="462.500000" y1="56.000000" x2="466.500000" y2="56.000000"  style="stroke:black; stroke-linecap:round; stroke-width:0.25;"/>
<line x1="466.500000" y1="56.000000" x2="470.500000" y2="56.000000"  style="stroke:black; stroke-linecap:round; stroke-width:0.25;"/>
<line x1="470.500000" y1="56.000000" x2="480.500000" y2="56.000000"  style="stroke:black; stroke-linecap:round; stroke-width:0.25;"/>
</svg>
